<svg id="Layer_1" data-name="Layer 1" xmlns="http://www.w3.org/2000/svg" xmlns:xlink="http://www.w3.org/1999/xlink" viewBox="0 0 792.67 613"><defs><style>.cls-1{fill:#231f20;}.cls-2,.cls-3{fill:#fff;}.cls-2{fill-opacity:0.34;}.cls-3{fill-opacity:0.25;}.cls-4{fill:#bce6fb;}.cls-5{fill:url(#radial-gradient);}.cls-6{fill:url(#radial-gradient-2);}.cls-7{fill:url(#linear-gradient);}.cls-10,.cls-8{fill:none;stroke-miterlimit:10;}.cls-8{stroke:#231f20;}.cls-9{fill-rule:evenodd;}.cls-10{stroke:#000;stroke-linecap:round;stroke-width:0.25px;}</style><radialGradient id="radial-gradient" cx="125.16" cy="1.84" fx="78.51782637676985" fy="-55.41733228251913" r="1010.21" gradientUnits="userSpaceOnUse"><stop offset="0" stop-color="#8dc63f"/><stop offset="0.12" stop-color="#7ec256"/><stop offset="0.38" stop-color="#59b892"/><stop offset="0.69" stop-color="#27aae1"/><stop offset="0.73" stop-color="#27a4dd"/><stop offset="0.8" stop-color="#2894d3"/><stop offset="0.86" stop-color="#2a7ac2"/><stop offset="0.94" stop-color="#2c55aa"/><stop offset="1" stop-color="#2e3192"/></radialGradient><radialGradient id="radial-gradient-2" cx="117.22" cy="388.34" r="115.96" gradientUnits="userSpaceOnUse"><stop offset="0" stop-color="#a97c50"/><stop offset="1" stop-color="#fffac2"/></radialGradient><linearGradient id="linear-gradient" x1="492.18" y1="291.96" x2="157.44" y2="1064.74" xlink:href="#radial-gradient-2"/><symbol id="Sponge_4" data-name="Sponge 4" viewBox="0 0 98.73 87.68"><path d="M98.73,10.1h0a1.23,1.23,0,0,0-1.29-.55h0l-1-.43s.63-.66,0-.89-1.37.49-2.14,0,.33-1.68-.36-1.78-1.66.62-2.49.36.23-2-2-2.14S84.6,5.93,82.85,5.73s-1-2.23-2.32-2.32-2.44,1-3.74.36S75.83.29,74.47,0s-2.81,1.57-5.17,2.5a9.76,9.76,0,0,1-4.81,1.07c-2,0-3.17-1.56-4.81-1.6s-5.3,2.64-7.13,2.67-1.65-1.94-4.28-2-3.71,1.5-5.35,1.78-3.23,1.28-5,1.07S35.45,3,33.66,2.88s0,1.41-2.32,2.14a6.51,6.51,0,0,1-4.1,0S24,1.59,22.62,1.45a7.74,7.74,0,0,0-2.49,0c-.74.12-2.65,2-5,2.67S9,6.22,9,6.22C7.78,5.47,4.15,5.95,3,5.48A19,19,0,0,1,0,3.82L3.51,20.24l8.67,33.22s8.49,24,11.44,26.76a23.27,23.27,0,0,0,9.6,6.09,19.84,19.84,0,0,0,8.86,1.29,22.93,22.93,0,0,0,7.38-4.06c2.77-2.58,2.77-3.69,5.17-6.64s28-27.31,34.51-36.35,9.59-30.44,9.6-30.45Z"/><path class="cls-3" d="M0,3.82A19,19,0,0,0,3,5.48c1.2.46,4.83,0,6.09.74s1.71,2.51,2.77,3S22.9,9,24.54,9.54,27.69,14,28.6,14.71,42,21.58,44.1,22.09s5.72-.74,5.72-.74S56.4,18,57.94,18s2.93.87,4.8.92.6-1.41,3.32-2.77,4-4.46,6.64-4.06a8.57,8.57,0,0,0,4.61-.55,11.49,11.49,0,0,1,3.32-3.14c1.81-1,4.24.18,4.24.18a7.29,7.29,0,0,0,2.77.92c1.54.16,1.55-.64,2.4-.37s.37.72,1.29.92,1.34-.49,2-.74.67.42,2.21.55.86-.27,1.84-.37a1.23,1.23,0,0,1,1.29.55s-3.14,21.41-9.6,30.45S57,73.95,54.62,76.9s-2.4,4.06-5.17,6.64a22.93,22.93,0,0,1-7.38,4.06,19.84,19.84,0,0,1-8.86-1.29,23.27,23.27,0,0,1-9.6-6.09c-3-2.77-11.44-26.76-11.44-26.76L3.51,20.24Z"/></symbol><symbol id="Thalassia_testudinum_Turtlegrass_3" data-name="Thalassia testudinum (Turtlegrass) 3" viewBox="0 0 6.08 36"><path class="cls-1" d="M5.24,26.91a3.65,3.65,0,0,0-.07-.46A3.14,3.14,0,0,0,5,27h0c.09-.48.13-.66.25-1.33h0c.41-2.46,1.71-5.7.12-9.16-1.75-3.79-2-5-1-6.66A6.57,6.57,0,0,0,5,5.33a.39.39,0,0,0-.39-.19s-.4.41-.37.67a6.11,6.11,0,0,1-.85,3.91A3.51,3.51,0,0,0,2.91,11a12.82,12.82,0,0,1-.41-2.17c-.22-2.51.78-4.17.92-5.69a5.39,5.39,0,0,0-.53-3A.45.45,0,0,0,2.51,0h0S2.1.32,2.14.52s.22,1.29.3,2.33c.07,1.81-1.11,2.92-.91,5.24a8.09,8.09,0,0,0,.11,2.38c.24,1,1.06,1.91,1.06,3.61a10.41,10.41,0,0,1-.17,1.57,39.77,39.77,0,0,1-1.39-5.3L1,8.68a1,1,0,0,0-.33-.26h0c-.26-.15-.52.19-.52.41s0,.63.08,1.74.7,2.29,1.12,4.1a17.65,17.65,0,0,0,.84,2.88,14.4,14.4,0,0,0-.34,3.52,21.85,21.85,0,0,0,.86,3.76,3.25,3.25,0,0,1-1.38-1.2,4.7,4.7,0,0,1-.64-3A18.22,18.22,0,0,1,1.45,18a4.07,4.07,0,0,0,.07-1.23s-.07-.26-.29-.24-.37.35-.39.65A8,8,0,0,1,.6,18.32,9.7,9.7,0,0,0,0,21a5.36,5.36,0,0,0,1.23,2.91,9.5,9.5,0,0,0,1.66,1.58,6.57,6.57,0,0,1,.16.78l.16,1.34a.64.64,0,0,0-.07-.11,2.16,2.16,0,0,0-.15.87h-.1c0,.12,0,.23,0,.34H2.84a3.62,3.62,0,0,1,0-1c0,.15-.09.32-.25.29-.22.47.13,1,0,1.51a2.48,2.48,0,0,1-.33-.61,2.62,2.62,0,0,0,0,1H2.18c0-.14,0-.29-.09-.43,0,.07-.11.18-.13.25a.41.41,0,0,1,0-.14s-.08,0-.07.05a1.41,1.41,0,0,1,0-.72.32.32,0,0,0-.14.07,1.34,1.34,0,0,1-.11.36,2.55,2.55,0,0,1,.06-.73c-.64.43.08,1.42.12,1.91h0a1.45,1.45,0,0,1,.26,1A3.45,3.45,0,0,0,2.26,33l0,0c-.1,1,.76,1.48,1.15,2.2.06.29.36.91.68.89s.58-.58.6-.83l-.06,0a1.85,1.85,0,0,0,.07-.46,1.59,1.59,0,0,0,.57-1.36,8.49,8.49,0,0,1-.07-1.33c0-.31.2-.95,0-1.19,0,.05-.12.1-.15.16a1.94,1.94,0,0,1-.08-.45c-.06.15-.13.28-.19.42.08-.62.13-1.44,0-1.26a2.75,2.75,0,0,0-.14.62,3.94,3.94,0,0,1,.33-1.74C5,28.36,5.55,26.84,5.24,26.91Zm-.29-8.33a11.85,11.85,0,0,1,0,3.17c-.14-1.46-1-2.66-1.75-4.27.19-.79.41-1.46.54-2.05.15.3.31.59.47.87A11.09,11.09,0,0,1,4.94,18.58Zm-2,.76a10.76,10.76,0,0,1,.88,2.15,21.08,21.08,0,0,1,.11,3.14A22,22,0,0,1,3,21.06,9.08,9.08,0,0,1,3,19.34Z"/></symbol><symbol id="Soft_coral" data-name="Soft coral" viewBox="0 0 99.94 100"><path d="M95.63,66.17a13,13,0,0,1,1.95.06c.86.06,1.59.24,1.89.22s.38,0,.46-.34-.39-.67-.73-.87a14.71,14.71,0,0,0-3.81-1.16,3.93,3.93,0,0,0-1.86.92,1.12,1.12,0,0,1-1.17.33,1.63,1.63,0,0,1-.85-1,3.56,3.56,0,0,1,.31-1.64c.14-.42-.1-1.11-.6-.86a3,3,0,0,0-1.13,1.87,16.29,16.29,0,0,0,.25,1.94c0,.57.43.76.09,1s-.63.06-.91-.13a5.12,5.12,0,0,0-2.3-.59,2.26,2.26,0,0,0-1.28.77c-.25.43,1.45.52,2.29.7a11.79,11.79,0,0,1-3.08.34,20.5,20.5,0,0,1-3.43-.42,3.46,3.46,0,0,0,.49-2.5A2,2,0,0,1,82.72,63l.21,0c.82.08,3-3.32,3.42-4.34a19.63,19.63,0,0,1,2.22-3.88,14.69,14.69,0,0,1,2.75-2.08c.72-.42,3.84-2.13,3.67-2.44s-1.32.32-2.35.73c.83-1,2-2.61,1.93-2.85h0c-.15-.29-2.26,1-3.06,1.5.33-1.62.8-3.76.59-3.85S89.74,49,89.56,48.72s.73-3.18.27-3.33S88,49,87.71,48.82s-.38-4.72-.89-4.78-.12,4.34-.5,4.38S84.85,43,84.21,43s.67,5.31,1.13,6.44A6.81,6.81,0,0,1,85.4,53a8,8,0,0,1-1.74,3.42,15.72,15.72,0,0,0-2.82,2.17,11.7,11.7,0,0,0-6.06,0c-1.74.63-3,6.94-4.87,7.1s-1.58-.47-2.68-.16l-.11,0a8.14,8.14,0,0,1,.11-1.79A5.78,5.78,0,0,1,67.81,62c.32-.35,1.56-.13,1.88-1s-1.14-.07-1.22-.4,1.92-2,1.2-2.22-1,1-1.67,1.55-1,.38-1.25,0,1.8-3.79,1.17-4.19-2.11,3.5-2.69,3.79-.72-5.1-1.29-4.81.07,4.41-.28,4.65-.46-.66-.79-1.24S61.26,56,61.09,56.27s1.77,3.9,1.35,4.1-2.86-1.24-3.14-1,2.07,1.86,2.85,2.35,2.16,1.09,2.26,1.71c.07.43.11,2.57.13,3.88A18.15,18.15,0,0,1,60,69.86c-3.31,1.1-7.25,4.57-9.93,3s-7.57-2-7.57-2a20.82,20.82,0,0,0,1.1-2.05c.16-.47,4.42-6.94,4.73-9.62.06-.47.13-.95.21-1.42l.3.17s1-.16,1.27-.7a11.31,11.31,0,0,1,2.41-2.33,8.18,8.18,0,0,1,1.89-1c.53-.09,1.33.7,2.21.27s-.85-.63-.66-.91,3-.43,2.65-1-1.52.18-2.51.27-1.09-.25-.95-.67,4.33-1.82,4.14-2.43-4.36,1.45-5,1.37,3.35-4,2.67-4.13-3.33,3.22-3.79,3.21.14-.72.33-1.3.37-2.35,0-2.25S51.89,50,51.4,49.92s-1.3-2.35-1.74-2.28.2,2.4.44,3.15.87,1.88.48,2.38c-.17.21-.85.88-1.57,1.59a6.44,6.44,0,0,0-.22-3,61.74,61.74,0,0,1-1.29-6.25,6.86,6.86,0,0,0,1.22-.7c-.13.43-.15.76,0,.89.69.47,2.35-3.06,3.31-3.16s1.79,3.21,2.52,3.16-.22-4.18.32-4.42,3.62,2.34,4.1,1.87-4.12-3-3.94-3.61,3.24-.08,3.15-.81-2.29-.56-2.84-.93h0a20,20,0,0,1,2.79-1.36c.67-.26,1.62-.56,2.68-.85,0,0,0,0,0,.07,0,.82,2.5,1.28,4.21,2.59a7.25,7.25,0,0,1,1.35,1.35c-1-.34-2.74-1.87-3.29-1.35s3.33,2.88,2.82,3.29-4.34,1.11-4.19,1.93,4-.44,4.75.19-1.11,3.51-.53,4,3-3.06,3.52-2.84S70.34,49,71,49s-.7-5.07-.15-5.34,2.4,2.28,2.88,1.7-1.24-2-1.36-2.68,3.15-.82,3.27-1.51-3.7-.1-3.8-.84,2.69-2.87,2.35-3.32h0c-.3-.4-3.55,1.82-4.52,1.89l-.46-.48c-.37-1-.73-3-1.34-2.94-.23,0-.35.41-.44.94a11.39,11.39,0,0,1-1.1-2.13v0a13.62,13.62,0,0,1,1.59-.2,5.58,5.58,0,0,0,2.91-.77,1.53,1.53,0,0,0,1.19.42,12.28,12.28,0,0,1,4.05.58,7.84,7.84,0,0,1,2.28,1.1c.41.47.08,2.68,1.08,3.24s.12-2.12.55-2.16,3.05,2.52,3.48,1.68S82,37,81.28,36.07s-.72-1.36-.16-1.56,4.57,3,5.16,2.29S82.33,34.16,82,33.39s6.33.58,6-.19-6-1.24-6.24-1.72S83.13,30.33,83.9,30s2.91-1.58,2.59-1.84-5.17,1.42-5.37.85,2.79-2.85,2.45-3.26-3.47,1.75-4.18,2.62-1.66,2.48-2.46,2.48c-.6,0-3.81-.45-5.38-.68a8.88,8.88,0,0,1-.18-1.37c-.06-1.51,1-2.54,1.22-3.5a1.3,1.3,0,0,0,.91-.4,11.56,11.56,0,0,1,3.26-2,7.37,7.37,0,0,1,2.3-.58c.58.1,1.15,1.44,2.21,1.25s-.67-1.15-.39-1.44,3.26.67,3.07-.2-1.63-.38-2.68-.67-1.06-.77-.77-1.25,5.08-.58,5.08-1.44-5,.1-5.66-.29,4.8-3.84,4.13-4.22-4.51,2.78-5,2.59.38-.86.77-1.53,1.15-2.88.77-2.88-2.88,4.12-3.36,3.84-.57-3.55-1.05-3.65-.58,3.16-.58,4.22.28,2.78-.29,3.26S72.1,22,70.89,22.78l0,0c-1.11-.52-3.79.08-5.27-.37s-1-1.34-1.93-1.85a1.57,1.57,0,0,0-.35-.13c.44-.74.46-3.43.51-4.39a9.75,9.75,0,0,1,2-3.84,6.6,6.6,0,0,1,3.07-2.11c1.2-.22,6.35-2.12,6-2.78s-5.5,1.55-5.66,1.15S73,5.75,72.74,5.27s-4.18,2.23-4.51,2,2.19-3.85,1.82-4.22-2.39,2.35-2.69,2.3S68.8,1.3,68.52,1.05s-1.77,1.62-3,2.94c0-1.11,0-4-.29-4s-1,2.2-1.43,3.67c-.18-1.28-.38-2.82-.59-2.81S63,5.06,63,6a20.11,20.11,0,0,1-.36,4,24.32,24.32,0,0,1-2.15,4.6c-.61,1-2.26,4.92-2,6l-.25.06c-1.34.37-.89,2.75-3,2.82s-6.61,5.72-8.76,6-2,0-2,0l-.66-.25a16,16,0,0,0,0-3.87,10.09,10.09,0,0,1,1.86-1.64,5.79,5.79,0,0,1,1.76-.84c.48,0,1.16,1,2,.72s-.73-.88-.54-1.16,2.73.07,2.44-.64-1.38-.07-2.27-.16-1-.5-.82-.95,4-1.27,3.86-2-4,.85-4.6.62,3.23-4,2.63-4.22-3.18,3.06-3.6,3,.17-.79.37-1.42.46-2.63.15-2.57-1.65,4-2.08,3.78-1-2.93-1.44-2.94,0,2.79.22,3.68.68,2.33.29,2.82c-.19.24-1,1.06-1.82,1.84C41,21.92,40,20.52,38.69,19.86c-.37-.19-.68-.33-1-.45a2.68,2.68,0,0,0-.12-.34A19.25,19.25,0,0,1,36,14.13c0-.28-.08-.58-.13-.87a2.68,2.68,0,0,0,.92-.27c.35-.24-.5-.7-1.15-1.1-.12-.71-.23-1.35-.31-1.79a3.12,3.12,0,0,1,1-.31,4.27,4.27,0,0,0,2.34-.89c.49-.6,1.33-1,1.22-1.34s-2.2.51-2.68.71-.86.47-1.1.12.4-1.09.52-1.5.13-1,.27-1.58-.08-2.44-.7-2.54-.9,2.91-1,3.47a3,3,0,0,1-.47,1,9.06,9.06,0,0,1-.65-1.15c-.11-.32,0-1.79,0-2.22s-.2-.8-.42-.7-.38.72-.44,1.29-.12,2.8-.36,2.94-.69,0-.95-.51a19.78,19.78,0,0,0-1.34-1.85s-.93-.83-1.15-.51,0,1,.16,1.44,1.47,1.93,1.52,2.13,0,.55-.18.64-1.47-.7-1.78-.75a4.22,4.22,0,0,1-.77-.15c-.3-.09-1.5-1-1.77-.79s.23.86.59,1.19A12.25,12.25,0,0,0,29,9.59c.25.08.73.29.54.45a1.32,1.32,0,0,1-1,.3A10.24,10.24,0,0,1,27,9.66c-.68-.33-1.19-.72-1.44-.79S25.23,8.74,25,9s0,.7.14,1a10.1,10.1,0,0,0,2.53,2.22,4.2,4.2,0,0,0,2-.2,1.06,1.06,0,0,1,1.15.09A1.26,1.26,0,0,1,31,13.22a4.55,4.55,0,0,1-1.12,1.32c-.34.31-.5,1,0,.94a3.88,3.88,0,0,0,1.92-1.25c.39-.5.51-1.27.82-1.76a1.16,1.16,0,0,0,.17-.49,11.85,11.85,0,0,1,.8,3.76,18.42,18.42,0,0,1-.42,3.8,3.14,3.14,0,0,0-1.78,3.32,85.2,85.2,0,0,1,0,9c-.16.79-1.6.75-1.6.75h0A11.71,11.71,0,0,1,27.52,32c.49-.2.84-.4.81-.62-.08-.59-2.13-.46-3.15-.59l-.58-.33c-.15-.94,1.3-4.51.84-4.7h0c-.51-.21-2,2.91-2.71,3s-1-3.67-1.66-3.4-.08,3.39-.75,3.43-2.46-1.25-2.91-.67,2.44,1.75,2.3,2.33-5.4.42-5.24,1.07,4.15,0,4.48.51-2.59,3.55-2,4,3-2,3.78-1.42.4,4.48,1.24,4.44.66-3.82.95-4.4,3.39,2.66,3.83,1.91-1.51-2-2-2.8a7.11,7.11,0,0,1,1.62,1C28,36,29,38.3,29.78,38.12h0c.63,0,1.51,1.15,2.61,2.25a5.11,5.11,0,0,1,1.26,4.42c-.23,1,1.81,5.68,2.46,9.34a11.8,11.8,0,0,1-2.7-.13A7,7,0,0,1,31,53a2.62,2.62,0,0,1,.44-.12c.42-.09,2.43.88,2.34.27A2.45,2.45,0,0,0,33,51.92a3.6,3.6,0,0,0-2-.35c-.27.07-.55.11-.75-.23s.2-.35.36-.91a19,19,0,0,0,.76-1.77A3.85,3.85,0,0,0,31,46.41c-.32-.43-.71.14-.72.6a4.49,4.49,0,0,1-.24,1.7,1.23,1.23,0,0,1-1,.61c-.33,0-.76-.45-.83-.78a4.16,4.16,0,0,0-1.2-1.62,10.18,10.18,0,0,0-3.34-.39c-.33.06-.8.19-.83.55s0,.38.27.51.85.25,1.55.53a10.89,10.89,0,0,1,1.55.71,1.32,1.32,0,0,1,.42.9h0c0,.24-.47,0-.69-.11a12.68,12.68,0,0,0-2.18-.45c-.48,0-1.34.05-1.28.36s1.5.61,1.77.77a4.65,4.65,0,0,1,.63.47c.24.2,1.66.59,1.74.81s-.18.45-.36.56-2.16.14-2.6.3-1.08.47-1.18.84,1.15.51,1.15.51A19.79,19.79,0,0,0,26,53.56c.54-.14,1,.09,1,.36S25.41,55.71,25,56.13s-.75,1-.67,1.18.45.09.8-.16,1.35-1.32,1.66-1.46a9.33,9.33,0,0,1,1.29-.29h0a2.85,2.85,0,0,1-.47,1c-.35.46-2.4,2.65-1.91,3s2-.68,2.36-1.17.76-.89,1-1.25.33-1.21.7-1.36l.44.15a3.09,3.09,0,0,1,.28.71c.17.49,1,2.59,1.26,2.45s.06-1,.18-1.79a3,3,0,0,0-.1-.68,11.3,11.3,0,0,1,2.1,1.51,2.35,2.35,0,0,0,1.69.41,17.49,17.49,0,0,1-4,5.69c-1.89,1.73-7.41,3.78-9,4.89s-2.52,3.47-3.47,4.26-1.93.11-3.39,0a2.35,2.35,0,0,0,.07-.31c.16-1.1-2.21-2.37-3.63-4.58a10.62,10.62,0,0,1-1.48-3.65,1.36,1.36,0,0,0,.49.34,21.91,21.91,0,0,0,1.92,1.09,5.58,5.58,0,0,0,2.75.1c.58-.23,0-.72-.54-.82a6.28,6.28,0,0,1-2-.56,1.14,1.14,0,0,1-.5-1.06c0-.33.71-.66,1.12-.66a5.56,5.56,0,0,0,2.21-.86,9,9,0,0,0,1.25-3.2c0-.33,0-.82-.46-.92s-.46,0-.67.16-.5.79-1,1.42a10.31,10.31,0,0,1-1.21,1.39,1.86,1.86,0,0,1-1.17.23c-.29,0,.09-.46.29-.66a11.49,11.49,0,0,0,1-2c.17-.46.25-1.32-.12-1.32S13.08,58.76,12.84,59a4.82,4.82,0,0,1-.71.53c-.29.2-1.09,1.52-1.38,1.55s-.5-.26-.58-.46.34-2.14.26-2.61-.3-1.15-.71-1.32-.87,1-.87,1A16.31,16.31,0,0,0,8.59,60a.79.79,0,0,1-.67.92c-.33,0-1.75-1.88-2.17-2.35s-1-.92-1.24-.89-.21.43,0,.82,1.25,1.58,1.34,1.92a7.75,7.75,0,0,1,0,1.32h0a3.63,3.63,0,0,1-1.12-.66c-.46-.43-2.58-2.87-3.17-2.47s.33,2.11.83,2.54.87.92,1.25,1.22,1.5.6,1.46,1-.58.4-1.21.46-3.29.43-3.21.76,1.21.27,2.09.53a5.91,5.91,0,0,0,3-.43,4.58,4.58,0,0,1,1.19-.23c.19.43.47,1,.78,1.71-.43.67-1,1.5-.51,1.53a3.7,3.7,0,0,0,1.12-.24l.4.81a16.55,16.55,0,0,1,1.42,5,3.41,3.41,0,0,0,1.58,2.21h0c-.79.95.16,2.84-.63,3.94S.69,92.72.06,95.4s4.1,3,5.52,3.47a13.72,13.72,0,0,0,5.52,1.1c2.21-.16,7.73-.79,9.62-1.74s3.81-8.67,8.22-11,6.76-3.47,10.39-3.15c11.83,0,11.71,2.5,15.34,2.35A9.83,9.83,0,0,0,57,86a3.34,3.34,0,0,0,2.31,2.56,15,15,0,0,1,2.72.63c-.59.21-1,.42-1,.66.08.64,2.5.53,3.71.68l.67.36c.17,1-1.6,4.81-1.07,5h0c.59.24,2.37-3.08,3.25-3.15s1.13,3.95,1.9,3.67.16-3.63.94-3.66,2.88,1.38,3.42.76S71,91.64,71.16,91s6.37-.36,6.18-1.06-4.88-.09-5.27-.61,3.12-3.75,2.41-4.22S70.92,87.22,70,86.59s-.39-4.8-1.37-4.76-.84,4.08-1.19,4.68S63.51,83.61,63,84.4s1.73,2.13,2.36,3a8.59,8.59,0,0,1-1.88-1.06,18.63,18.63,0,0,1-2.72-2.85l.2-.25c.95-1.26,1.26-3.15,4.41-3.31s7.26-3.11,9.46-4.53a16.87,16.87,0,0,0,5-4.34,5.39,5.39,0,0,0,4,.57,15.78,15.78,0,0,1,3.15-1.07,2.33,2.33,0,0,0-.36.61c-.12.74-.69,1.44-.39,1.7s1.86-1.27,2.21-1.65.55-.74,1-.51.25,1.16.39,1.59.47,1,.68,1.58S92,76.17,92.67,76s-.86-3-1.09-3.61a2.61,2.61,0,0,1-.16-1.14h0a13.68,13.68,0,0,1,1.32.85c.3.26,1,1.68,1.34,2.07s.67.68.84.51-.06-.81-.34-1.37S93,70.66,93.16,70.44s.68-.24,1.23.14,2.42,1.25,2.42,1.25,1.41.44,1.43.06-.59-.95-1-1.29-2.6-1.27-2.76-1.45-.37-.5-.21-.67,1.86.12,2.19.05a4.86,4.86,0,0,1,.86-.13c.34,0,2,.35,2.2.1s-.74-.72-1.29-.9A17.48,17.48,0,0,0,95.67,67c-.29,0-.89,0-.8-.22A1.13,1.13,0,0,1,95.63,66.17Z"/><polygon points="65.25 0 65.25 0 65.25 0 65.25 0"/></symbol><symbol id="Brain_coral_Faviidae_3" data-name="Brain coral (Faviidae) 3" viewBox="0 0 99.75 78.98"><g id="ian_symbols_bbbccbf8f6c0c4d479d03c096fad3aa2" data-name="ian symbols bbbccbf8f6c0c4d479d03c096fad3aa2"><path class="cls-1" d="M99.75,45.65C83.08,50.35,72.18,51.42,58.93,58,45.69,64.88,30.09,71.5,14.7,79c0,0-3.42-3.85-7-7.69C-1.11,61.67-10.3,24.07,29,5c41.46-17.73,65,15,70.73,40.6Z"/><path class="cls-2" d="M13.85,19.6c3.63-1.92,6.62,4.92,6.62,6.2.21,1.28-.64,1.71-1.5.86a2.44,2.44,0,0,0-3.63.85c-.64,1.71.86,2.56,2.78,3.2,2.14.86,1.71-.64,2.14,2.14.64,2.78-4.06.86-5.13-.21C13.85,31.57,13,32,11.07,32c-2.14.21-2.14,1.5-3,3.21-2.56,4.7-.85,6.41.64,11.11,1.07,3,2.35,2.78,1.92,6.41-.22,3.63,2.78,5.77,4.49,7.26,1.92,1.49,4.92,1.71,6.41,2.14,1.71.21,1.5-2.78,1.28-4.7-.21-1.71.64-1.5,1.92-1.92,1.28-.21,1.5,1.28,2.13,2.35s2.78.43,3.21-.43c.64-1.07-.43-3-1.07-3.84-.64-1.07-1.07-1.5-4.06-1.71-2.78,0-4.92.43-5.77,2.35-.64,1.71-3.42,2.35-4.06.22s.43-3.42.85-4.7c.43-1.07,2.57-1.71,4.27-1.71,1.5,0,4.06.86,4.92,0,.64-.85,0-2.56-2.14-4.06a3.92,3.92,0,0,0-5.56,1.28,2.28,2.28,0,0,1-4.05-.64c-.86-1.92-1.5-1.29,0-3.85s5.34-1.92,9.4-1.07c4.06.64,5.34,2.35,6.41,4.06,1.06,1.5,2.13,4.27,1.28,6.41s3.42,2.56,3.64.85.64-1.92,0-3c-.43-1.28.43-2.56,1.28-2.56.85.21,1.28,1.5,1.71,3s0,1.92,1.29,2.35c1.49.64,3.2-1.07,3.42-1.92s1.28-.43-1.07-1.28c-2.13-.86-2.13-5.13-1.49-6.2S41,40.33,42.48,41s1.28.64,2.78,4.06,5.55-1.71,5.34-3C50.39,41,48,38.62,47,38.2a13.33,13.33,0,0,0-6.63-.64c-4.7.43-3.2-.22-5.34,3.2s-3.63-3.42-2.78-4.48c.86-.86,1.07-2.56-2.35-3s-2.78,1.28-4.7,2.14c-1.92.64-1.5-1.28-2.35-3.42C22,30.08,25,30.08,28.16,29.65c3.2-.21,7.05,1.92,11.32,4.49,4.28,2.35,2.14-3,1.5-4.28-.64-1.07-3.63-3.42-5.13-4.49-1.28-1.07-4.06-1.92-7.48-2.56-3.21-.64-4.92-1.28-7.7-.64-3,.43-.21-4.06,3.21-4.06s7.27,1.5,8.76,3,4.49,1.92,6,0c1.49-1.71-4.27-5.34-5.35-5.77-1.28-.42-2.56-1.5-4.49-.85-1.92.85-3.42-.21-3.63-1.5-.21-1.07,1.71-2.14,4.92-3.21,3-1.07,7.9,3.21,9.82,5.55s1.71,7.27,2.78,7.27c.86,0,1.28-2.78.64-4.49s-.64-3.2.86-3.42c1.71,0,1.92,1.28,3,1.92s.85,3.84-.64,4.06c-1.5,0-1.5,1.71-1.28,3.42s2.13,4.91,2.35,5.77a4.87,4.87,0,0,0,2.57,3.64c1.71,1.07,3.84.64,6.2,1.71s1.92,3.42,1.92,4.06c-.21.64-1.5,1.07-4.27-.22-2.78-1.06-2.35,1.29-1.92,2.57.21,1.28,3.42,1.93,5.13,1.93a5.9,5.9,0,0,0,4.7-4.06c.86-2.35-.22-3.85,1.07-3.42a5.81,5.81,0,0,1,3.63,1.71c.64.85,3.63.21,4.27-1.07.65-1.49-2.56-4.28-4.7-4.28-1.92,0-5.34-1.71-8.55-2.35-3.2-.43-3,1.07-5.13,1.49-2.13.22-1.5-1.92-1.28-3.2,0-1.28,2.77.21,3-.64.43-.86-2.77-2.35-4.27-3-1.71-.86-1.92-.43-1.71-1.92,0-1.5,2.56-1.71,3.85-.21a66.91,66.91,0,0,0,5.34,4.27c1.92,1.28,5.13,1.07,4.7-.64-.22-1.71-3.85-1.71-4.92-2.35-1.28-.43-4.7-4.92-6-6.84-1.5-1.92-6.41-4.91-9.83-5.55s-3.63-2.56-3-3.63c.43-1.28,3.84,0,6.2.65,2.35.85,5.13,4.27,6.2,5.13,1.29.64,1.93,0,.85-2.78-.85-2.78-3.84-2.78-6-3-1.92-.21-2.57-1.5-.42-2.77C47.39,4,52.1,5.72,53,6.35s3.2,2.78,3.42,4.92c.21,1.92,1.07,2.14,3,2.56,1.71.22,1.28.22,1.07-2.13,0-2.35-1.92-3.85-2.35-5.13s2.14-.22,3.63.85c1.71,1.07,1.71,2.78,2.57,4.7C65.34,14,63,15.54,61.49,16s-.85,3,.21,4.92,4.92,3.2,7.91,4.06c2.78,1.07,2.78,3.85,3.63,5.34.64,1.5,1.92,1.07,2.57.21s-1.07-2.57-1.07-4.06c0-1.71.85-.85,2.56.86,1.7,1.92,1.92,4.27,2.56,6.41.42,2.35,2.14,3,3.42,3.42,1.5.64,2.14-1.07,2.14-1.07a19.93,19.93,0,0,0-5.13-9.83c-4.48-4.92-8.76-3-13-4.06s-3.42-4.27-2.36-4.91c.85-.64,4.92.64,6,1.71.86.85,3,2.14,3.85,1.28.64-.64-2.35-3-3.21-4.06-1.07-.86-3.85-2.35-4.7-3.21s.43-1.92,2.78-1.71A7.24,7.24,0,0,1,73.89,13a9.31,9.31,0,0,1,2.78,4.27c.43,1.07,1.28,3.42,2.14,3.21.85-.64-.43-3,.21-4.92s2.14.43,2.57,1.71.64,4.49.86,5.35c0,.85,1.92,3,4.27,4.7A15.9,15.9,0,0,1,90.56,32c.43,1.07,2.56,6.19,2.56,6.19-2.78,1.5-6.62,4.7-9.83,3.21-3-1.5-3.63-4.28-5.77-3.63C75.6,38.41,76,41.19,73,42c-3,1.07-6.2-1.7-6.2.86.21,2.56.85,2.13,3.85,2.35s4.7,5.35-1.5,3.85c-6-1.5-6.62-3.42-9.19-2.78-2.35.64-1.07.43-.85,4.06,0,3.42-4.06,7.05-5.77,5.56-1.92-1.28-5.34-3.84-1.71-4.49,3.42-.43,3.85-.22,2.78-2.14s-4.28-3-5.35-.85c-.85,1.92-.43,5.34-3.63,5.56s-3.63-1.5-6,.21-.21,4.27,1.92,3.63S50,62.34,46.75,64c-1.49.64-6-2.35-7.48-1.5-1.92,1.07-.43,6-2.14,6.2-3,.43-3.42-10-4.49-9.61-1.07.64-3.63-.21-4.06,1.92-.65,1.93,1.06,2.78-1.5,6.2s-6.84,3.42-4.49,0c2.14-3.42-4.49-5.77-2.78-1.07,1.92,4.91.43,5.13-.86,7.05-1.5,1.92-7.48.85-8.12-1.07-.43-2.14,2.35-4.49,4.06-3.64,1.7.64,3-1.71.63-2.78S10,64.48,7.22,61.48C4.44,58.71,1.88,55.07,4,54.86c2.35-.42,3.42-.85,1.92-3.63A24.19,24.19,0,0,1,3.8,43.11c-.22-2.35,1.07-11.54,2.56-12.4,1.28-.64,2.56,0,3.21-1.71.86-1.69.44-7.67,4.28-9.38Z"/></g></symbol><symbol id="Acropora_spp." data-name="Acropora spp." viewBox="0 0 99.52 82.08"><g id="ian_symbols_874ac0bd37e014841593bf102519fd55" data-name="ian symbols 874ac0bd37e014841593bf102519fd55"><path d="M85.8,33.42c1.25-.4,8.86-1.93,8.72-2.4s-3.93-1.6-6.54-1.6"/><path d="M94.44,45.41c2.45-1.12,3.44-3,5-6.11-2.57-.15-8,4.91-9.53,5.35-11.78,3.54-16,4.67-19.41,4.67a68.69,68.69,0,0,0,8.91-7.42c5.5,1.12,9.89-.19,10.3-1.4-.17-.72-4.43-1.21-7.51-1.49C91.92,28.44,96.66,17.29,96.57,14.9c-1.94.75-6.89,8.38-8.19,10.72-.64-1.9-3-5.65-4.88-5.85C83.4,22,86.26,28.3,85.61,29S74.32,41.28,69.25,45.23l-.16.14c.06-3.67,1.22-16.55,1.79-16.85,4.75-2.46,9.49-5.25,9.79-9.5-5.38,3.13-8.6,4.79-10.09,4.78,0-.4,0-.88,0-1.41h0c.33-2.6,5.07-19.56,3.44-19.68A68.15,68.15,0,0,0,70.43,9c-.22-2.66-.86-6.88-2.66-9-2.3,1.83-1,15.83-2,28.67-.06.78-.11,3.94-.16,7.6-2.27-2-8-6.88-9.41-9.19a56,56,0,0,1-2.81-5.49c.8-1.93,3.1-6.7,2.36-7.27-1-.38-2.58,2.26-3.64,4.32-1.69-4.05-2.83-7.32-3.35-7.31-1.11.73.53,7.8,2.14,12.42-.61,0-3.34-1.94-5.36-3,.13-6,.23-10.77.08-10.93-1.17-1.21-3.28,7.37-3.57,8.78-.7,3.43-.54,8.13-.61,11.71-.87-1.17-3.81-4.59-6.73-8.12-1.5-1.81-3.73-4.71-6-4.81-.34,4.09,10.74,17.26,11.92,17.74,0,1,.16,3.07.4,5.5a35,35,0,0,1-5.34,4.78c-1.72-2.53-7.67-8.79-9-10.17,1.8-2.79,3.79-6,3.57-9.09-2.27,0-4.34,4.18-5.87,5.86-2.45-3.84-2.78-5.7-6.87-9.61-.18,3.15,1,6.31,2.13,9.12.93,2.41,14.16,17.12,22.78,26.73h-.09l-1,0h0A45.55,45.55,0,0,1,24.79,55c-8.64-14.19-11.18-28.23-12-28.6h0c-1.4.46-2,14.26,5.52,25-5.19-3.69-7.08-7.46-8-7.1S11.55,52.72,22,57.82a38.84,38.84,0,0,1-10.63,2.4C10,60.35.48,58.15,0,58.51c-.08,1,8.89,9.27,26.57,1.15a54.36,54.36,0,0,0,16.86,2.46c1.54,0,4.82,8,7,12.2.1,2.56.14,5.35,0,7.71a20.39,20.39,0,0,0,3.74-.16c0-2.8.25-12.29.49-15.07s11.83-12.3,12.6-13.39c10.88-.28,31.83-6.56,32.23-7.82C99.19,44.85,96.43,45.41,94.44,45.41ZM39.37,48.88a16.67,16.67,0,0,0,2.17-3.49c.23,2.05.47,4.14.71,6Zm26.07-.27c-4.83,4.25-12.67,11-13.79,10.85h0A52.79,52.79,0,0,1,47.43,56a108.17,108.17,0,0,1-2-14.37c-.21-4-.08-11.78.06-18.64A24.88,24.88,0,0,0,51,26.75h0L65.58,40.59C65.54,43.8,65.49,46.85,65.44,48.61Z"/></g></symbol><symbol id="New_Symbol_4" data-name="New Symbol 4" viewBox="0 0 37 48.48"><path d="M21.59,48.47c-1-.05-2-.08-3-.19s-1.79-.32-2.69-.47c-.33-.05-.68,0-1,0s-.53-.13-.54-.58c0-.76,0-1.53,0-2.29,0-.28,0-.42-.28-.51l-.52-.2c-.09,0-.24,0-.28-.09a.52.52,0,0,0-.47-.23.35.35,0,0,1-.35-.49,4,4,0,0,0,0-1.67,1.15,1.15,0,0,1,0-.6c.12-.26.06-.3-.18-.27,0,0-.09,0-.13-.05s.07-.07.11-.07c.3,0,.45-.17.57-.42s.24-.21.37-.31a2.92,2.92,0,0,1-.43-.16.38.38,0,0,1-.13-.21,1.9,1.9,0,0,0-.79-1.05,6.44,6.44,0,0,1-1.33-1.32,4.83,4.83,0,0,1-.94-1.45s0-.07,0-.09a2.87,2.87,0,0,1-.77-1.11c-.11-.19-.22-.29-.44-.24a.61.61,0,0,1-.25,0,.46.46,0,0,1-.13-.08s.06-.12.1-.14c.24-.09.2-.2.08-.38-.24-.37-.42-.78-.67-1.14a1.78,1.78,0,0,0-.6-.54c-.21-.11-.26-.17-.21-.41a.83.83,0,0,0-.2-.78c-.2-.21-.33-.5-.61-.65A.21.21,0,0,1,5.71,30c.12-.38-.16-.67-.24-1,0-.18-.08-.35.09-.46a.43.43,0,0,1,.52,0c.39.28.77.56,1.17.82a1.3,1.3,0,0,0,.46.19c.38.07.45.13.53.51a.5.5,0,0,0,.08.17c.49-.16.45.36.64.54a19.46,19.46,0,0,0,1.36,1.57,2.29,2.29,0,0,1,.52.75,2.43,2.43,0,0,0,1,1,8.25,8.25,0,0,1,.77.58,1,1,0,0,0,.59.24c.42,0,.6.2.6.56,0,.69.47,1,1,1.19a.79.79,0,0,1,.29.16,1.82,1.82,0,0,0,1,.68,4.22,4.22,0,0,1,.53.29c.08,0,.19,0,.29,0a.71.71,0,0,0-.07-.27c-.35-.45-.72-.89-1.07-1.34a20.84,20.84,0,0,1-2.26-3.44,1.12,1.12,0,0,1-.12-.33,8.56,8.56,0,0,0-1.15-2.59,2.16,2.16,0,0,0-1.45-1c-.52-.15-1-.38-1.53-.54-.86-.26-1.73-.48-2.59-.71l-.18-.07a2.4,2.4,0,0,0-.52-.19c-.45-.06-.89-.1-1.34-.18a1.85,1.85,0,0,0-1.21.24,2.1,2.1,0,0,1-1.07.28,9.13,9.13,0,0,0-1,.11l-.2,0c-.3,0-.74-.12-.71-.27A1,1,0,0,1,.69,27a13.08,13.08,0,0,0,1.26-1,.9.9,0,0,0,.14-.24c-.09,0-.52-.15-.53-.21-.06-.37-.33-.51-.63-.6a.5.5,0,0,1-.36-.39c-.06-.23,0-.44.26-.47a3.35,3.35,0,0,1,1.38,0,3.07,3.07,0,0,0,1.54.09c.17,0,.25,0,.39.15.43.4.56.35.57.34.3-.36.47,0,.68.12a.66.66,0,0,0,.4.06,1.46,1.46,0,0,1,.83.19c.15.08.38,0,.56.05.53.12,1.05.27,1.59.38a6.65,6.65,0,0,0,1,.1s.13-.16.12-.23-.12-.16-.17-.24c-.19-.28-.61-.33-.67-.73a.81.81,0,0,1-.63-.34c-.34-.4-.65-.82-1-1.23a4.16,4.16,0,0,0-.85-1,2.81,2.81,0,0,1-.7-.63.81.81,0,0,0-1.07-.65c-.15,0-.15-.17-.09-.31.16-.39.1-.5-.29-.61l-1.09-.28c-.08,0-.19-.07-.25,0-.62.33-1-.1-1.4-.45a1.12,1.12,0,0,0-.58-.32,5.19,5.19,0,0,1-.69-.18c-.46-.17-.55-.51-.28-.93a1.74,1.74,0,0,1,1-.62c.37.27.82.12,1.22.27a1.21,1.21,0,0,1,.4.22c.14.13.23.19.44.11s.33.09.5.12.3,0,.19-.24-.34-.58-.51-.88c0-.09-.31-.57-.41-.72s-.15-.14-.14-.19c.08-.36-.21-.58-.3-.88,0-.06-.06-.14,0-.19a1.16,1.16,0,0,0-.26-1.12s-.06-.1,0-.14c.26-.56-.16-1-.23-1.52a.63.63,0,0,1,0-.28.8.8,0,0,0-.21-.89c-.08-.08-.18-.27-.14-.32a.46.46,0,0,0,0-.59.66.66,0,0,1,0-.48c.2-.65.66-.89,1.2-.63a.44.44,0,0,1,.19.15q.25.43.48.87c.1.19.26.38,0,.6,0,0,0,.16.05.21a1.49,1.49,0,0,1,.37,1.37.39.39,0,0,0,0,.29c.2.25.41.48.3.86,0,.14.16.26.34.15s.14.24.1.27c-.23.24-.23.43.08.61A.25.25,0,0,1,4.8,14c-.14.21,0,.29.15.3s.38.16.31.43c0,.06,0,.16,0,.19.43.39.41,1,.71,1.45s.57,1,.87,1.42c.06.09.2.13.3.2.07-.12.23-.26.21-.36-.12-.55.23-1,.28-1.52A10.36,10.36,0,0,1,7.94,15c.11-.51.16-1,.27-1.54a3.3,3.3,0,0,1,.28-.81c.1-.21.33-.18.54-.17a.59.59,0,0,1,.58.41,1.53,1.53,0,0,1,.13.68.53.53,0,0,0,.27.55c.32.23.31.23.45-.15.08-.21.28-.39.31-.6.07-.5.47-.9.41-1.44a.5.5,0,0,1,.06-.25,3.22,3.22,0,0,0,.55-1.45.19.19,0,0,1,.07-.13c.28-.22.52-.44.24-.82a.05.05,0,0,1,0,0c.35-.24.27-.68.44-1,.32-.59.61-1.2.92-1.8a.65.65,0,0,1,.3-.32c.47-.14.51-.56.61-.91.05-.19.08-.43.26-.43a.75.75,0,0,1,.56.26,2.85,2.85,0,0,1,.26.76,1.85,1.85,0,0,0,.08.17c0-.06.12-.12.13-.18,0-.3.06-.6.08-.9A.41.41,0,0,1,16,4.52a3.7,3.7,0,0,0,.37-.26.38.38,0,0,1,.61.26c.14.62.3,1.24.43,1.86a.71.71,0,0,1,0,.35c-.06.2-.17.4.18.43a.32.32,0,0,1,0,.24.79.79,0,0,0,0,.82,6,6,0,0,1,.21.68.68.68,0,0,0,.2.34A4.17,4.17,0,0,1,19.6,10.8a.59.59,0,0,1,.11.23c0,.46.38.71.63,1a1.41,1.41,0,0,0,.13.12c0-.06.05-.14,0-.18-.11-.2.07-.37.06-.5,0-.41.2-.84-.06-1.23,0-.06-.12-.15-.11-.16.41-.44-.21-.76-.15-1.18,0-.15-.08-.31.06-.49S20.48,8,20.17,8c-.15,0-.15-.14-.09-.28s.28-.53-.14-.69c0,0,0-.16,0-.21.15-.23.17-.43,0-.57s-.2-.17-.06-.31a.21.21,0,0,0,0-.35c-.23-.12-.24-.21-.09-.42s.14-.41-.18-.54-.36-.24-.06-.44c.05,0,.1-.2.07-.22-.3-.27.17-.69-.1-.86-.45-.27-.55-.56-.31-1a2.41,2.41,0,0,0-.42-.62c-.41-.32-.3-.69-.18-1.06a.56.56,0,0,1,.79-.33,7.93,7.93,0,0,1,.77.47c.07,0,.13.12.21.14a.57.57,0,0,1,.46.68c0,.22.09.34.32.37s.33.2.24.45-.18.34,0,.53.16.34.37.11c0,0,.17,0,.22.09s.06.28,0,.42-.26.48,0,.72c0,0,0,.15,0,.23s.1.25.26.23.34,0,.14.23a.14.14,0,0,0,0,.1c0,.27-.56.37-.16.77.18.17.07.56.36.74,0,0,0,.19,0,.25s-.15.37,0,.43c.41.15.29.5.36.78a.73.73,0,0,1,0,.35c-.06.21-.1.39.23.34a.23.23,0,0,1,.14.05s.05.08,0,.09c-.25.27.25.51,0,.79a.62.62,0,0,0-.11.41,5.63,5.63,0,0,0,.19,1.13.93.93,0,0,0,.43.5c.19.09.17.16.1.3-.34.68-.32.75.23,1.24a.42.42,0,0,1,.07.29c0,.3-.07.59-.07.89s.09.25.31.2c.47-.11.5-.07.6.41,0,.07,0,.14,0,.2a.82.82,0,0,0,.05.14.63.63,0,0,0,.11-.09l.59-.75c.14-.18.33-.34.25-.63a.83.83,0,0,1,0-.35c.09-.45.31-.64.76-.61.26,0,.37.2.42.44s.06.27.12.29c.25.07.32.16.16.4s.26.73.34.71a.63.63,0,0,0,.36-.22.43.43,0,0,1,.49-.25c.05,0,.13,0,.15,0,.28-.36.74-.26,1.1-.44a6.15,6.15,0,0,1,2.08-.5c.12,0,.31.16.37.29a.72.72,0,0,1,0,.47.45.45,0,0,1-.25.25c-.37.13-.21.34-.11.56q.63,1.47,1.24,3c.19.47.37.94.54,1.42.08.22.11.45.17.67s0,.19.07.22c.23.14.09.28.09.46a3.92,3.92,0,0,0,.18,1s.21.05.24,0a4.14,4.14,0,0,0,.58-.74,1.26,1.26,0,0,1,1.27-.7.77.77,0,0,1,.52.88,5.23,5.23,0,0,1-.26.82c-.21.53-.44,1.06-.66,1.59-.12.28-.26.54-.38.82-.22.51-.44,1-.64,1.54s-.28.84-.43,1.25a7.27,7.27,0,0,1-.54,1.45,5.13,5.13,0,0,0-.28.85,4.72,4.72,0,0,1-.69,1.28,3.6,3.6,0,0,0-.55,1.06.65.65,0,0,1-.32.41c-.09,0-.14.19-.19.29a4.49,4.49,0,0,1-1,1.36c-.37.34-.65.78-1,1.15s-.76.73-1.14,1.08a13,13,0,0,1-1.1,1,25.52,25.52,0,0,1-2.18,1.64,6.1,6.1,0,0,0-1.12.93.51.51,0,0,0,.22.93,2.78,2.78,0,0,1,1.22.78,1.94,1.94,0,0,0,1.06.55,3.43,3.43,0,0,1,2,1.21,1.18,1.18,0,0,0,.49.35.89.89,0,0,1,.59.59c.24.67.49,1.34.7,2A1.09,1.09,0,0,1,30,47.07c-1,.22-2,.41-3.05.61-.47.1-.92.22-1.39.31s-1,.19-1.5.27c-.25,0-.51.06-.76.09l-1,.11C22.21,48.48,21.84,48.48,21.59,48.47ZM14.36,26.54c0,.09,0,.26.11.34a2,2,0,0,1,.44.83c.08.21.14.33.39.18s.35,0,.38.22.06.61.1.91c0,.1,0,.27.06.28.31.1.22.39.29.6a.79.79,0,0,0,.12.27c.28.31.84.44.61,1,0,0,0,0,0,0,.1.19.11.43.41.51s.18.41.26.62,0,.4.34.3a.41.41,0,0,1,.32.13,1.07,1.07,0,0,0,.44,1,2.09,2.09,0,0,1,.39.5,1.38,1.38,0,0,1,.15.28.79.79,0,0,0,.71.39c.18,0,.31-.32.28-.6a.3.3,0,0,0,0-.1c-.08-.16,0-.26.09-.4a1.19,1.19,0,0,0,.24-1.23c-.06-.13-.17-.38.06-.44s.24-.22.21-.41-.18-.69.19-1a.23.23,0,0,0-.08-.38c-.33-.14-.24-.3-.06-.5a3.32,3.32,0,0,0,.29-.34c0-.06.1-.17.08-.21-.2-.28-.06-.55,0-.83s.11-.4,0-.54,0-.26.13-.34.16-.2,0-.27-.23-.27-.07-.46.23-.28.2-.32c-.2-.27,0-.38.17-.53a.3.3,0,0,0,.08-.28c-.21-.42,0-.84,0-1.25a1,1,0,0,0-.42-.86c-.21-.12-.16-.21,0-.3.54-.22.45-.19.35-.72a.57.57,0,0,1,.06-.45,1.3,1.3,0,0,0-.33-1.25c-.28-.24-.28-.24,0-.45s.24-.29,0-.55a.42.42,0,0,1-.1-.21,1.16,1.16,0,0,0-.8-.9c-.37-.14-.06-.42-.24-.51s-.43.18-.48-.23-.27.07-.45,0-.1.12,0,.2a.45.45,0,0,1-.15.66c-.23.11-.3.29-.42.47a2.65,2.65,0,0,0-.46.82.43.43,0,0,1-.21.21.52.52,0,0,0-.29.38,1,1,0,0,1-.25.43,4.84,4.84,0,0,0-1.15,1.58.28.28,0,0,1-.13.15,1.45,1.45,0,0,0-.58.69c-.16.28-.43.46-.51.82a7.36,7.36,0,0,1-.57,1.16A4.76,4.76,0,0,0,14.36,26.54Zm14.81-1.47-.09,0c.07.19.14.37.2.56a11.08,11.08,0,0,1,.29,1.08c0,.26,0,.56.36.64.05,0,.11.13.11.21,0,.4.35.74.26,1.18,0,.07.1.21.19.25a.28.28,0,0,0,.26-.08c.13-.23,0-.58.39-.71a.59.59,0,0,0-.06-.22c-.15-.25,0-.37.19-.47.48-.22.49-.26.31-.74-.05-.14-.09-.29.11-.32s.3-.3.27-.46.26-.39,0-.6-.15-.32.11-.39.25-.2.09-.37l-.12-.1c-.17-.14-.23-.28.06-.34s.2-.08.2-.24,0-.55.06-.62c.43-.28-.19-.36-.07-.56a.32.32,0,0,0,0-.14,1.12,1.12,0,0,0,0-.34,5.35,5.35,0,0,0-.39-1c0-.06-.06-.16,0-.19.25-.26,0-.5,0-.76s-.08-.81-.16-1.21c-.11-.58-.21-1.17-.31-1.75a9.11,9.11,0,0,1-.24-1.07c0-.4-.4-.69-.29-1.11,0,0-.16-.07-.18-.05-.39.42-1,.54-1.41.88a1.47,1.47,0,0,0-.63.68.26.26,0,0,1-.29.21,1.94,1.94,0,0,0-1.69.95,1.79,1.79,0,0,1-.31.4,4.39,4.39,0,0,0-1,1.29c-.14.25-.34.46-.23.79,0,.07,0,.2-.12.26a.56.56,0,0,0-.18.64,1.07,1.07,0,0,1,0,.4,2.93,2.93,0,0,0-.08.43c0,.51.2,1-.1,1.53a.16.16,0,0,0,0,.14c.21.24.1.46,0,.7s0,.26,0,.39,0,.32,0,.47,0,.18,0,.25a3.39,3.39,0,0,1,.13,2.22.58.58,0,0,0,0,.35,1.26,1.26,0,0,1-.13,1.12,2.9,2.9,0,0,0-.16.68,3.43,3.43,0,0,1,0,.35c-.17.56,0,1.18-.31,1.72,0,.08,0,.22,0,.34a2.07,2.07,0,0,1-.08.4c0,.07-.11.13-.12.21s.05.15.08.23.12-.06.15-.11c.17-.29.34-.59.49-.89s.33-.79.55-1.16.4-.65.56-1c.08-.18.24-.37.22-.54-.05-.45.13-.88.07-1.33,0-.21.37-.55.59-.56s.37.16.45.47a3.69,3.69,0,0,1,.12.49c.05.41.1.82.12,1.23s.24,1-.25,1.34c0,0-.06.15,0,.17.2.21,0,.33-.1.49l-.36.72-.44.92c-.05.11-.13.2-.17.31s0,.25.17.28.31,0,.38-.15a.76.76,0,0,1,.52-.49A2,2,0,0,0,27.7,33c.09-.07.25-.19.23-.25-.16-.52.39-.56.56-.85,0-.05.12-.07.16-.13s.09-.18.06-.22a4.46,4.46,0,0,1-.48-1.33,4,4,0,0,1-.45-2.15s0-.07,0-.1c0-.66-.42-1.24-.32-1.92,0-.07-.06-.15-.08-.24a2.07,2.07,0,0,1-.09-.38,13.34,13.34,0,0,0-.35-2.9,4.72,4.72,0,0,1,0-1.31,12.23,12.23,0,0,0,0-1.42A1.14,1.14,0,0,1,27,19a.32.32,0,0,1,.55-.07.93.93,0,0,1,.25.37,4.8,4.8,0,0,1,.37,1.41,17,17,0,0,0,.38,2.24c0,.18.2.34.19.51a3.18,3.18,0,0,0,.24,1A6.15,6.15,0,0,1,29.17,25.07Zm-16.48-4.2s0,1,.09,1.57a.73.73,0,0,0,.1.28c.07.13.15.16.26,0a4.32,4.32,0,0,1,.47-.57c.3-.3.66-.55.67-1,0,0,.06-.07.1-.11.24-.26.48-.51.71-.77a.4.4,0,0,0,.09-.27c0-.36.18-.57.39-.79s.26-.26.28-.4.14-.31.33-.39.46-.17.35-.5c0,0,.1-.13.18-.18a2,2,0,0,0,.37-.21c.29-.3.56-.61.82-.94a2.69,2.69,0,0,0,.48-.7c.16-.43.12-.44.57-.43h.26c.26,0,.3-.18.36-.35a.27.27,0,0,0-.22-.39.35.35,0,0,1-.31-.34c0-.1-.12-.19-.2-.27s-.21-.13-.27-.22c-.16-.25-.29-.52-.46-.77s-.48-.4-.36-.78c0,0-.06-.08-.09-.11a.73.73,0,0,1-.39-.62s-.12-.12-.19-.13c-.25,0-.32-.15-.27-.38,0-.08,0-.21,0-.24-.39-.26-.41-.73-.64-1.08A1,1,0,0,1,16,8.94a1.59,1.59,0,0,0-.06-.9c-.1-.39-.18-.79-.27-1.19a1.84,1.84,0,0,0-.11-.44c-.29,0-.16.27-.21.43s-.09.14-.12.22-.13.42-.18.63-.05.43-.12.64c-.16.49-.35,1-.53,1.46-.1.25-.36.54-.3.71.13.35,0,.48-.23.66-.05,0,0,.19,0,.28,0,.41-.26.78-.15,1.2a5.93,5.93,0,0,0-.44.85A2.68,2.68,0,0,0,13,14.93a1,1,0,0,1-.08.77.73.73,0,0,0,0,.93.53.53,0,0,1,0,.62A3.14,3.14,0,0,0,12.43,19a2.05,2.05,0,0,0,.18.66,1.2,1.2,0,0,1,.08.28C12.69,20.27,12.69,20.57,12.69,20.87Zm-3.58-.95c0,.25,0,.44.28.45,0,0,.06.12.08.18a2.27,2.27,0,0,0,0,.28c0,.13.13.27.29.18s.08-.2.07-.3a3.65,3.65,0,0,1-.09-1.35.51.51,0,0,0,0-.24c-.09-.32-.18-.63-.26-.95,0,0,0-.16.07-.16.39-.06.24-.21.08-.39a.29.29,0,0,1,0-.19c0-.27,0-.53,0-.8,0-.11-.1-.21-.16-.32,0,.09,0,.17,0,.26s0,.16-.05.25a3.65,3.65,0,0,0-.12,1.49c.09.38-.16.75,0,1.13C9.32,19.57,9.17,19.77,9.11,19.93Zm6.36,23.15,0,.14.17-.09.78-.47a5.71,5.71,0,0,0,.54-.37.25.25,0,0,0,.06-.21.52.52,0,0,0-.59-.3A1.64,1.64,0,0,0,15.47,43.07Z"/></symbol><symbol id="New_Symbol_5" data-name="New Symbol 5" viewBox="0 0 30.74 24.02"><path d="M2.39,14a.3.3,0,0,1-.07.23L1.67,15a2.3,2.3,0,0,0-.73,1.88,4.16,4.16,0,0,0,.57,1.28,2.36,2.36,0,0,0,.64.79c.24.16.53.23.77.39.48.31.75.9,1.36,1h.1c.09,0,.11,0,.11-.13l-.15,0a.67.67,0,0,1-.3-.1,7.51,7.51,0,0,1-.86-.78,7.28,7.28,0,0,1-1-.84,4.69,4.69,0,0,1-.81-1.74,1.82,1.82,0,0,1-.12-.71c.07-.66.81-1.27,1.21-1.74a11.55,11.55,0,0,1,.82-1,2.24,2.24,0,0,1,1.21-.47,6.07,6.07,0,0,0-.41,1.57,4,4,0,0,0,0,.63c0,.19.18.39.19.52a3.57,3.57,0,0,1,.23-2,5.94,5.94,0,0,1,1.09-1.19A4.19,4.19,0,0,0,6.33,7.8c0-.09.33-.34.4-.37a1.65,1.65,0,0,1,.65,0,4.58,4.58,0,0,0,2.59-1,1.77,1.77,0,0,1-.43.77C11,6.24,11.35,4,12,2.49a.59.59,0,0,1,.48-.39c.36,0,.69.58,1,.78a2.79,2.79,0,0,0,1.32.52,2.9,2.9,0,0,0,1.43-.18.92.92,0,0,0,.28-.16,3.22,3.22,0,0,0-.71.07A1.88,1.88,0,0,1,14.91,3c.13-.18.57-.3.78-.43A6.53,6.53,0,0,0,16.53,2a9.22,9.22,0,0,0,1-1l.71-.83A.52.52,0,0,1,18.42,0a.35.35,0,0,1,.41.17,1,1,0,0,1,.11.46,31.83,31.83,0,0,1,.3,4.17.25.25,0,0,1,0,.06.56.56,0,0,1-.22-.2,3.16,3.16,0,0,1-.25-.51.22.22,0,0,0-.08-.1s.16.68.2.76a31.81,31.81,0,0,0,4.9,7,1.91,1.91,0,0,0-1.09,1.45,2,2,0,0,1,.8-1c.26-.17.66-.25.84,0a.14.14,0,0,1,0,.08.17.17,0,0,1-.06.1A5,5,0,0,0,22.83,16a6.54,6.54,0,0,1,1.31-3.15.49.49,0,0,1,.26-.17.53.53,0,0,1,.38.14l1.45,1.06a.47.47,0,0,0-.32.1c-.08.06.51.15.54.15a8.8,8.8,0,0,0,.88-.08,2.8,2.8,0,0,1,1.1.06c.19.06,1.16.85.74.89a2.91,2.91,0,0,0-.17-.33,1,1,0,0,0-1.17-.45,1.39,1.39,0,0,0-.33.18,2.08,2.08,0,0,0-.86,1.37,2.6,2.6,0,0,0,0,1c0,.22.09.44.11.66a1.37,1.37,0,0,1-.12.79,2.36,2.36,0,0,1-.4.6,1.28,1.28,0,0,1-.28.23.82.82,0,0,0-.08-.16.46.46,0,0,0-.47-.17.5.5,0,0,0-.24.11.09.09,0,0,1-.11,0,2.15,2.15,0,0,0-1.39-.16,1.34,1.34,0,0,0-.83.67,3,3,0,0,0-.21.93,3.13,3.13,0,0,1-1.72,2.07c-3.31,1.82-6.85,1.83-10.53,1.47a16.35,16.35,0,0,1-4.51-.9,12.44,12.44,0,0,1-3.2-2A6.85,6.85,0,0,1,.07,17.39a2.74,2.74,0,0,1,1.34-2.92A4.24,4.24,0,0,1,2.09,14,.42.42,0,0,1,2.39,14Zm14.77-.57c-.37-.25-1.86,2.93-2,3.27a9.77,9.77,0,0,0-.5,4.07.42.42,0,0,0,.14.33c.29.18.19-.26.17-.35a.18.18,0,0,1,.16-.22h.09l1.21.17a5.08,5.08,0,0,0,1.2.06c.25,0,.73-.06.84-.33a6,6,0,0,1-3.37-.3A.36.36,0,0,1,15,20a.37.37,0,0,1-.06-.23,8.07,8.07,0,0,1,.7-3.75c.17-.35.35-.7.53-1a6,6,0,0,1,1-1.37A.22.22,0,0,0,17.16,13.42ZM4.24,16.06l0,0a.41.41,0,0,0,0,.24,1.42,1.42,0,0,0,.27.51,4.42,4.42,0,0,0,.76.88,9.7,9.7,0,0,0,1.93,1.29q.87.47,1.76.9a2.47,2.47,0,0,0,.84.35c.34,0,.51-.26.86-.21s1.47.5,1.82.1c-.37-.11-.79,0-1.2-.19a2.38,2.38,0,0,0-1.36-.27,2.06,2.06,0,0,1-.27.07A1.08,1.08,0,0,1,9,19.51c-.89-.45-1.85-.77-2.72-1.26a4.17,4.17,0,0,1-2-2.13A.16.16,0,0,0,4.24,16.06Zm16,5.58c-.11-.35-.42-.77-.25-1.15s1.09-.49,1.21-1c0-.09-.17,0-.25,0a2.2,2.2,0,0,1-1.17.53,9.75,9.75,0,0,1-.19-3.79.45.45,0,0,1,.06-.2.49.49,0,0,1,.36-.14,3.9,3.9,0,0,0,1.52-.53l-1.78.35,0-.42c-.1,0-.16.12-.18.22a11.14,11.14,0,0,0,0,4.76c0,.21.2,1.3.44,1.37A.23.23,0,0,0,20.26,21.64ZM9.16,9.34l0,.06a7.56,7.56,0,0,1-.75,1.43,3.94,3.94,0,0,1-1.3,1.23c-.33.19-.36.88-.24,1.18a2.84,2.84,0,0,0,.45.59c.08.11.27.61.37.64a.14.14,0,0,0,.2-.16,2.08,2.08,0,0,0-.51-.91,1.09,1.09,0,0,1-.27-1,1.4,1.4,0,0,1,.49-.54A5.57,5.57,0,0,0,9.16,9.66a1.16,1.16,0,0,0,.06-.23A.08.08,0,0,0,9.16,9.34Zm5.52,7.11c-.07,0-.07,0-.12,0a4.55,4.55,0,0,0-.46.82,5.87,5.87,0,0,0-.46,2.17c0,.18,0,.36,0,.54a7.43,7.43,0,0,0,.09,1,1.61,1.61,0,0,0,.06.26.25.25,0,0,0,.13.16.17.17,0,0,0,.18,0c.05,0,0-.09,0-.14a5.36,5.36,0,0,1-.26-1.5,6.12,6.12,0,0,1,.06-1.08,5.78,5.78,0,0,1,.52-1.72Zm4,2.8c0,.21,0,.41,0,.62A5.66,5.66,0,0,0,18.91,21c.07.26.16.52.24.78,0,0,0,.06.06.07a.38.38,0,0,0,.22,0,.09.09,0,0,0,.07-.12,1,1,0,0,0-.07-.17l-.11-.22a5,5,0,0,1-.43-1.82c0-.27,0-.55,0-.82a.66.66,0,0,0,0-.09s0-.07-.07-.06a.19.19,0,0,0-.08.06s0,0,0,0Zm-6.24-8.38a2.24,2.24,0,0,0-.63.25,1,1,0,0,0-.24.23,1.9,1.9,0,0,0-.53.94,3.85,3.85,0,0,0,0,.63,2.15,2.15,0,0,1-.14.62.25.25,0,0,0,.31-.08.65.65,0,0,0,.09-.51c0-.18-.09-.35-.1-.53a1.19,1.19,0,0,1,.33-.86c.08-.08,1-.65,1-.66S12.53,10.86,12.48,10.86Zm4.7,4.83,0,0a1.84,1.84,0,0,0,.81.13h.16a.11.11,0,0,0,.11-.05A1.33,1.33,0,0,0,17.18,15.7Z"/><path d="M25.8,19.89c.37-.27.54-.88.9-1.22a1.38,1.38,0,0,1,.63-.38,1.49,1.49,0,0,1,.84.12A2.69,2.69,0,0,1,30,20.29a.69.69,0,0,1,0,.45.71.71,0,0,1-.39.29,3.8,3.8,0,0,1-3.62-1A.86.86,0,0,1,25.8,19.89Z"/><path d="M7.74,7.21a.35.35,0,0,1-.22,0c-.17-.12-.08-.38,0-.56a3,3,0,0,0,.25-.88,2.79,2.79,0,0,1,.33-1.48.54.54,0,0,1,.24-.18.83.83,0,0,1,.49.06,6.35,6.35,0,0,0,1.73.21c.42,0,.16.75.07.95A3.67,3.67,0,0,1,8.84,6.86,2.81,2.81,0,0,1,7.74,7.21Z"/><path d="M7,7.16a.84.84,0,0,0-.88.62,1.15,1.15,0,0,0,.06.4.47.47,0,0,1-.05.39c-.19.23-.34,0-.37-.19a5.14,5.14,0,0,0-.5-1,7.34,7.34,0,0,0-.36-.86c-.18-.28-.49-.52-.38-.9a.15.15,0,0,1,.05-.08.18.18,0,0,1,.11,0,6.27,6.27,0,0,0,1.39,0,2.7,2.7,0,0,1,1.26-.2.28.28,0,0,1,.16.1.32.32,0,0,1,0,.2C7.54,5.8,7.33,7.19,7,7.16Z"/><path d="M24.18,22.69c-.25,0-2.26-.67-2.26-.67.21-.28.49-.5.72-.77a1.13,1.13,0,0,1,.67-.45,2.27,2.27,0,0,1,1.58.82c.09.1.28.34.1.46s-.16.06-.22.11-.12.24-.21.35A.46.46,0,0,1,24.18,22.69Z"/><path d="M30.16,14.38a.59.59,0,0,0,.08.37.91.91,0,0,0,.14.16.29.29,0,0,0,.22.07h.13a.16.16,0,0,1-.06.14,2,2,0,0,1-.62.45L29.1,16l-.19.09c-.08,0-.08.06,0,.14a2.1,2.1,0,0,0,.38.56,3,3,0,0,0,1,.7l0,0,0,0a3.17,3.17,0,0,1-2.11-1.3l-.28.1a2.32,2.32,0,0,1-.47.11.15.15,0,0,1-.17-.08l-.08-.13c-.08-.13-.16-.13-.27,0l0,0a.57.57,0,0,1,.21-.59l.07.11c.06.09.11.1.2,0a.21.21,0,0,1,.16,0,.19.19,0,0,0,.19,0c.11,0,.16,0,.25-.06a.25.25,0,0,1,.13-.06.26.26,0,0,0,.21-.11s0,0,.06,0a4.35,4.35,0,0,0,1.53-.86.87.87,0,0,0,.13-.17S30.1,14.37,30.16,14.38Zm-1.33,1.15a.18.18,0,0,0-.15.09,2.51,2.51,0,0,1-.17.19c-.08.07-.09.13,0,.2a.11.11,0,0,0,.15,0l.05,0,.4-.18c.08,0,.1-.09,0-.13A2.65,2.65,0,0,0,28.82,15.53Zm1.09-.59a.14.14,0,0,0-.16,0,1,1,0,0,1-.29.18.12.12,0,0,0-.07.08.23.23,0,0,0,0,.21c.05.06.12,0,.17,0h0a.41.41,0,0,1,.13,0,.1.1,0,0,0,.11,0,.1.1,0,0,0,0-.12.19.19,0,0,1,0-.18A1.42,1.42,0,0,0,29.91,14.94Zm-2.36,1.18c.06.11.07.12.19.09l.16,0a.26.26,0,0,0,.19-.13C28,15.91,27.74,15.94,27.55,16.13Z"/><path d="M5,10.22A.23.23,0,0,1,5,10a1,1,0,0,1,.09-.32,1.43,1.43,0,0,1,.58-.45,2,2,0,0,0,.46-.39c.34-.39.35.86.33,1A4.71,4.71,0,0,1,6,11.3s-.05.1-.11.1-.09-.12-.08-.19a.79.79,0,0,0-.2-.59,1.35,1.35,0,0,0-.54-.32A.23.23,0,0,1,5,10.22Z"/><path d="M24.27,18.91,24,19s-.09,0-.09.09.05.09.11.1h.09c.05,0,.07,0,.08.07s0,.11.13.11h.23a.48.48,0,0,0,.5-.29.13.13,0,0,1,0-.06,1,1,0,0,0,0,.14.43.43,0,0,0,.62.37l.22-.11a.09.09,0,0,1,0,.11,3.12,3.12,0,0,1-.26.28c-.13.11-.27.21-.42.33A4.39,4.39,0,0,0,25.64,22L25.59,22A4.28,4.28,0,0,1,25,20.88a3.09,3.09,0,0,1-.21-.64c0-.06,0-.08-.1-.09a1.91,1.91,0,0,1-1-.47l-.2-.2a.2.2,0,0,1,0-.29,1,1,0,0,1,.51-.3l.22,0C24.23,18.86,24.23,18.86,24.27,18.91Zm0,.91-.07-.25,0,0-.28-.13c-.06,0-.13,0-.18-.07h0l-.05,0a.06.06,0,0,0,0,.06l.14.19a.12.12,0,0,0,.07,0,.37.37,0,0,1,.22.14.58.58,0,0,0,.13.1C24.23,19.91,24.26,19.89,24.26,19.82Zm.17-.13a.48.48,0,0,0,0,.08.29.29,0,0,0,.29.13l.16-.06a.09.09,0,0,0,.05-.15.15.15,0,0,0-.12-.08.31.31,0,0,0-.21.06C24.57,19.64,24.5,19.6,24.43,19.69Z"/><path d="M29,15.12a2.79,2.79,0,0,1-.53.2,3.58,3.58,0,0,1-1.09.12c-.21,0-.29-.13-.2-.33a1.11,1.11,0,0,1,.36-.43,1.51,1.51,0,0,1,.61-.25h.1a1.4,1.4,0,0,1,.59.35A.56.56,0,0,1,29,15.12Z"/><path d="M27,17.26a5.15,5.15,0,0,1-.11-.54,4,4,0,0,0,1-.05A2.06,2.06,0,0,1,27,17.26Z"/><path d="M25.51,19.48a.33.33,0,0,1-.33-.43.16.16,0,0,1,0-.08.44.44,0,0,1,.39-.13.33.33,0,0,1,.25.28.26.26,0,0,1-.18.3Zm0-.22a.12.12,0,0,0,.12-.1.12.12,0,0,0-.11-.13.11.11,0,0,0-.12.12A.1.1,0,0,0,25.51,19.26Z"/><path d="M30.27,14.41a.37.37,0,0,1,.41.16.33.33,0,0,1,0,.25.09.09,0,0,1-.06.06.28.28,0,0,1-.28-.09.46.46,0,0,1-.12-.22A1.32,1.32,0,0,1,30.27,14.41Zm.2.11a.05.05,0,0,0-.06.07.19.19,0,0,0,.14.13.05.05,0,0,0,.07-.06A.16.16,0,0,0,30.47,14.53Z"/></symbol><symbol id="Pterois_volitans_Red_Lionfish_" data-name="Pterois volitans (Red Lionfish)" viewBox="0 0 99.8 74.54"><path d="M94.16,20.34c-3.24-.76-6.83-2.4-10-.4a105.8,105.8,0,0,0-11.77,9.42l-.23.07c-.07,0-.18.06-.18.15s0,.2,0,.3l-.17.06v0l-.8.16.69-.87s0,0,.08,0a.32.32,0,0,0,.32-.32h0s0-.07,0-.11l0-.08.57-.73,0,0c.22-.07.36-.24.32-.4h0l0,0,.12-.05L73.4,27l-.1,0,.51-.83.23-2V22.88l.11-.82-.34-1v-.23l-.06,0-.21-.53.06-.16,0,0v-.06l.19-.5L73.62,19v-.14l0,0-.08-.28.31-.3v-.38h-.16v-.43h-.27l.12-.65-.33-.66H73l-.1-.4-.36,0,.07-.07h-.22l-.07.06-.39-1-1.14-.28L70.13,14l-.55,0-.11-.08,0,0-.22-.18-.63.42h0l-1.16.05v0c0-.08.05-.15,0-.19s0,0-.08,0h0l0-.06h-.06l-.06-.21-.15-.13.05-.07h-.13l-.12-.1h-.71l-.9,1.06-.63,0v-.08l.15-.15-.15.07v-.06L64.6,14l-.38.38h-.29l.08-.11h-.3l-1.35,1.49h-1l-1.16.15,0,0h0l-.46.46-2.41,2.25-.2.2-.49.43-.38.45-.8.8-.43.08h0l-.12,0-.65.12-.09.07-.46.11-.55.65-.57.43-2.15,2.29-2,1.86-.75.61h-.08l.6-.61.37-2.75,1.21-2.94V20.2l-1,1.17-2.07,2.81-1.35,2.3-.29,0,.21-.46,3.32-6.16,5.21-8.46,2.19-3.44L57.29,5.5V4.58l.22-.3V3.8l-1.8,2.11L53.24,10,49.37,16l-3.72,5.41,1.16-2.17,5.35-8.8L54.4,6.84,55.64,4.3v-1L55.87,3v-.5L54,4.73,51.48,9l-4,6.17L43,21.87,42.33,23l2.38-4.36L50.05,9,52.3,4.39l1.36-2.21v-.8L52,2.6,49.52,7.14l-4.09,6.55-.57.9,3.32-5.94L50.42,4l1-2.5L51.33.77,50.1,2.23,47.63,6.76l-4.08,6.55-5,7.81L37.4,23,40,18.24,46,8.7l2.5-3.88,1.39-2.75V1L50.1.7V.16L48,2.54,45.22,7.2,40.8,13.88l-5,7.23-3.27,5.32h-.2l3.15-9.87L40.83,1l-.35-1-.61,1-2,4.76L36,10.63l-3.64,8.24-1.9,4.57L34.84,6.32V3.07L35.28.16,35,.63,32.78,4.92l-.32,1.84-1.51,5.13-3,8.18-2,6.2-.14-3.17L26.51,17,28.85,6.76l-.58-1.47.58-2.22h-.58l-.07.21h0L26.62,8,24.76,15.1l-2.37,9.81v2.9c-.52.12-1.4.35-1.4.35h0l-.68-1.78L19.86,6.28,19.24,5.1V4.62l-.06-.06v0l-.55-.47-.35.58-.35,4.65-.2,3.34-.2,9.15.38,7.4-1,.41L16,27.28,11.78,15.71l-1.36-2.39L8.18,10l-.44.17,1.41,5.48,4.17,13.08,1,1.45,0,.33-2.23-1.74L9.15,25.68,6.47,21.34l-1.93-.78-.61.29,1.45,1.71.74,1.07,2.24,3.1,4.39,4.7,1,.92c-.42.48-.79.94-1.08,1.32v0l-.32.41-.17-.51-.58.39L11.13,35c-.27.59-.07.86-.57,1.29-.83.71-1.37.16-2-.51h-1l-1-.19a3.63,3.63,0,0,0-1.17.29c0,.1.1,2.39.68,2l-.78.59-.78.88v.49s.1,1.26.1,1.27c.12,1.62-.76,1.37-2.05,1.37L1.56,43.59A6.68,6.68,0,0,0,.33,46.68,5.92,5.92,0,0,0,0,48c0,.24.34.72.27.91L0,49.74l.39.78c.41.81,2.36,1.42,3.22,1.76l.46.08L4,52.57l.1.69h.49L4.2,54l.49.19-.39.49v.49l.49.1-.29.88h.78l.1.29.59.59.39-.59-.1-.59.68.39.2-.49-.29-.39.58-.2-.68-.59h.78L7.13,54l-.68-.2,1-.2-.19-.39L6.64,53l0-.16,2,.35,1.27.68c1,.55,2.6.29,3.73.27.66,0,2.27.24,2.82-.07a3.45,3.45,0,0,0,1.24-1.12.83.83,0,0,0,.53.63c.65.17,1.82.36,3.1.54l.6.52c1.06.93.06,2.6-.19,3.61l-.49,2a10.81,10.81,0,0,0-.35,4c.22,1.45,1.13,2.11,2.21,3l1.27.59,1.85,2.15c.64.74,1.25,1.93,2.11,2.41a5.89,5.89,0,0,0,2.57.32c-1.18-.05-2.65-2.18-3.12-3.12l3.61,3.42,1.66.68,1.56.1,2.13-.36,1.1.55,2,.39,2.64-.57,1.36.86v-.29h0s0-.49.29-.39,1.79.47,1.84.49h0l-.88-.88L44,71.8l1.37,1.07,1.17.78a9.6,9.6,0,0,0,2.42.65A.63.63,0,0,0,49,74a3.06,3.06,0,0,0,.82,0,7.25,7.25,0,0,0-.92-1.09h1.66V72.1l.68.1a15,15,0,0,1,1.83.85,3.12,3.12,0,0,0-.18-.47h0l0,0c-.09-.18-.18-.37-.27-.55.21,0,1.3-.14,1.46,0-.18-.18-.38-.34-.58-.51l-.78-.78L52.14,70l1-.2a16.89,16.89,0,0,1,1.76.2c-.1-1.11-.33-1.26-1.17-2l1.56.19-.78-.88,1.07-.2-1.37-.49-.21-.5a3.77,3.77,0,0,0,1.48,0L57,65.75l1.17-1.17-1.66.2c-.58.07-1.7-1.63-1.6-2.11s1.65-1.09,2.19-1l1.56.2.88-.58h1.37L62,60.87a9.41,9.41,0,0,1,6,.39l-3.32-1.37-1.27.3L62,59.6c-.58-.25-1.18-.46-1.76-.68.13-1,.65-.78,1.56-.78l1.17.68,1.27-.19.88.49,1.17.1,1.46.59-2-1.37-4-1.07c-1.24-.13-4.63.11-5.08-1.46a2.84,2.84,0,0,1,3.05-.75,6.17,6.17,0,0,0,1.67.16c1.18,0,1.86.69,3.09.59h1.17l1.56.1,1.85.39L65.9,55.21l-3.51-.29-4.29-.49c-1.64-.15-3.28-.25-4.92-.33l-.07-.26c-.05-.21-1.23-.7-1.5-.91s-.74-.64-1.1-1l2.7.13L60,51.89l-10.49-.77a7.17,7.17,0,0,0-1.52-1,8.52,8.52,0,0,0-2.76-.7l.28-.14v-.08a23.71,23.71,0,0,1,2.58-1.38h0L50.58,47v0c1-.24,2-.35,2.69-.45l0,.06a7.3,7.3,0,0,0,1.25-.34l.34.85,1.81,1,3.12,1.28,3.31.47,5.34.5,3.28-1.38.91-.78.23-.09.09-.19L73,47.8l.31-.72.37-.68.36-.88.14-.87.68-.13.17-.53h0v0l0-.13v-.62l.71-1.24-.21-.17.69-1.13a18.28,18.28,0,0,1,1.66.9c.39.26.8.51,1.23.73,3.23,1.91,6.65,3.74,10.1,4.2,1.79.24,3.21.81,4.63,1a2.87,2.87,0,0,0,.75.05l.25,0,.42,0h.08l.45-.09.15,0h0a5.88,5.88,0,0,0,1.13-.45c.59-.31.67-1.12.8-1.66.52-2.2.57-4.49,1.29-6.69C100.58,34.45,99.7,21.64,94.16,20.34Z"/></symbol><symbol id="New_Symbol_3" data-name="New Symbol 3" viewBox="0 0 18.02 2.74"><path class="cls-1" d="M0,1.32a.75.75,0,0,0,.25,0H2.56a3.39,3.39,0,0,1,.6,0,2.48,2.48,0,0,1,.53.18l.44.14.48.16a10,10,0,0,0,1,.25c.37.07.75.13,1.12.17.71.08,1.43.1,2.15.11s1.61,0,2.41,0l.07.07a2.61,2.61,0,0,0,.29.26.16.16,0,0,0,.13,0,.16.16,0,0,0,.08-.06c.1-.13.06-.33.24-.34l.2,0,.39-.06a.39.39,0,0,1,.21,0l.1.06c.13.1.44.4.62.3a.48.48,0,0,0,.15-.15l.13-.18A.59.59,0,0,1,14,2.15a.59.59,0,0,1,.14-.07,3.63,3.63,0,0,1,.72-.26,1.35,1.35,0,0,1,.75.11l.74.25.78.25.39.12.35.09s.14,0,.13,0a.11.11,0,0,0,0-.06,3.65,3.65,0,0,0-.89-.65l-.49-.24-.44-.22a4.17,4.17,0,0,1,.41-.21A4.71,4.71,0,0,0,17.5.44a2.36,2.36,0,0,0-.5,0,4.94,4.94,0,0,0-.65.18l-.53.17L15.18,1A.34.34,0,0,1,15,1l-.09,0-.1,0L14.53.9A2,2,0,0,1,13.28.09S13.22,0,13.17,0a.12.12,0,0,0-.06,0,2.35,2.35,0,0,0-.35.42.82.82,0,0,1-.13.17c-.17.15-.61.07-.83.06l-1-.05c-1,0-1.92-.1-2.88-.13-.35,0-.71,0-1.06,0A12.2,12.2,0,0,0,4.83.7L4.25.84A1.38,1.38,0,0,1,4,.88H3.77l-.14,0H3.52s-.09,0-.09,0V1l.11,0,.1,0,.06,0s.06.06,0,.05l-.18,0-.12,0H3.28c-.7.07-1.4.15-2.1.16h-1C-.1,1.27,0,1.32,0,1.32Z"/></symbol><symbol id="New_Symbol_2" data-name="New Symbol 2" viewBox="0 0 169.06 122.02"><path d="M168.13,5c-.28,1.15-.5,2.32-.73,3.48-.19.95-.35,1.9-.57,2.85s-.12,2.19-.7,3.17a.16.16,0,0,0,0,.11c.32.9-.92,1.47-.5,2.39,0,.07-.19.23-.25.37s-.22.46-.15.57c.24.35-.11.51-.16.76s-.21.28-.23.43c-.07.59-.1,1.19-.15,1.78-.14.08-.39.13-.41.23a12.66,12.66,0,0,0-.16,1.28H164c-.1,0-.27,0-.29.06-.1.26-.16.54-.25.85-.68,0-.49.62-.62,1s-.15.75-.65.69l-.32,1.11-.05-.44-.21,0a2.23,2.23,0,0,0-.19.82c.1.62-.18.63-.65.47-.06.35-.09.68-.18,1,0,.12-.21.32-.25.3-.41-.14-.41,0-.38.37a1,1,0,0,1-.22.54c-.17.28-.4.52-.55.81s-.37.81-.9.88c-.08,0-.16.15-.2.25a1.89,1.89,0,0,1-.87,1.15c-.07,0-.09.15-.14.23l-.47.93-.49.17c-.33.41-.58.74-.85,1-.11.13-.3.19-.41.33-.24.29-.32.77-.71.64a12.58,12.58,0,0,1-1.07,1.31,10.5,10.5,0,0,1-1.28.9l-.1-.12-.32.86a1.58,1.58,0,0,0-1.21,1c0,.08-.16.18-.21.17-.55-.14-.61.28-.74.62l-.76.69.37.13h0l-.37-.13-.35.26h0l-.5-.17c-.47.65-.63,1.68-1.8,1.4l-.89,1h.27l.24-.2.43-.46-.43.46h0l-.24.2h-.27l-.78,0a15.85,15.85,0,0,0-4.4.89,29,29,0,0,0-6.7,3,.65.65,0,0,1-.18.06l-.12-.12a18.88,18.88,0,0,1,1.46-2c1.72-1.83,3.5-3.6,5.26-5.39a1,1,0,0,1,.42-.29c1.14-.29,2.29-.6,3.44-.83,2.17-.42,4.34-.79,6.52-1.19a1.88,1.88,0,0,0,.4-.18l-.06-.17-4.9,1-5,1c3-2.5,5.81-5,9.37-6.84a3.37,3.37,0,0,0-2.2.73c-1.14.86-2.29,1.72-3.43,2.6s-2,1.54-3,2.39a13.36,13.36,0,0,1-3.44,2.42,14.62,14.62,0,0,0-4.91,3.7,28.64,28.64,0,0,1-2.12,2.38,29.61,29.61,0,0,0-4.18,4.88c-.59.81-1.2,1.62-1.86,2.38s-1.54,1.68-2.32,2.51a3.13,3.13,0,0,1-.57.57c-1.51.93-3.05,1.81-4.55,2.77-1.12.72-2.2,1.51-3.26,2.31a21.93,21.93,0,0,0-2.64,2.18,19.23,19.23,0,0,1-3.82,3.27c-.37.22-1,.15-.92-.12.11-.71-.25-.42-.49-.24a7.59,7.59,0,0,0-.75.69l-.18.17-.27.23v-.48l1.16-1.76.61-.69h0l-.09,0,.09,0-1-.12c-.07-.32-.26-.28-.46-.24.21,0,.39-.08.46.24l1,.12h0c.41-.13.52-.46.73-.8a3.45,3.45,0,0,1,1.68-1.59c.21-.07.36-.33.53-.51h0l.67-.55-.09-.15-.38.11c.42-.49.81-1,1.27-1.47a7.33,7.33,0,0,1,1.1-.75l-.07-.18h-.75l-.06-.14c.18-.14.35-.3.54-.43s.58-.38.87-.57L112.5,58l.07.22.75-.72-.09-.12h-.52l.11-.19.31-.38,0-.12,0,.12c.24-.15.48-.31.73-.44a1.24,1.24,0,0,0,.71-.85c-.44.12-.44.12-.47-.09l.48-.47c.54-.4,1.1-.79,1.62-1.23.08-.06,0-.32,0-.49l-.25-.06.61-.7.71-.56.88-.93c-.13-.15-.28-.29-.27-.31a1.28,1.28,0,0,1,.38-.39,4.37,4.37,0,0,0,1.83-1.43l-.41-.17a2.17,2.17,0,0,1,.92-1.38,13.55,13.55,0,0,0,1.18-1l-.78-.15a2.27,2.27,0,0,1,.32-.57c.43-.42,1-.69,1.17-1.36,0-.09.16-.16.26-.23l.7-.51.25-.21c.16-.19.63-.31.13-.67-.08-.06,0-.49.09-.61a13.4,13.4,0,0,1,1.19-1l.8-.64c-.54-.52-.48-.79.13-1.06a3.9,3.9,0,0,0,.44-.27h0l.25-.22c.13-.32-.22-.74.24-1a5.65,5.65,0,0,0,.9-.79c.13-.13.34-.33.32-.45-.13-.6.36-.83.62-1.21a2.75,2.75,0,0,0,.25-.42c.12-.27.23-.54.34-.82s.09-.34.17-.66l1.6-1.68-.48-.17.57-.68c.16-.19.48-.46.43-.57-.26-.57.23-.75.48-1,.07-.09.25-.18.23-.24-.15-.64.43-.87.7-1.28a.68.68,0,0,0,.14-.24c.17-1.16,1-1.91,1.61-2.84.46-.75,1-1.43,1.54-2.14.07-.1.16-.31.11-.37-.24-.3,0-.49.13-.69s.5-.57.73-.87a1,1,0,0,0,.13-.4c0-.16,0-.36.08-.49.58-.89,1.19-1.75,1.78-2.63a1.07,1.07,0,0,0,.1-.38,2.68,2.68,0,0,1,.09-.5A10.76,10.76,0,0,0,140.83,13c0-.47.13-.94.2-1.41.18-1.21.42-2.42.53-3.64a18.25,18.25,0,0,0,0-2.55,10.84,10.84,0,0,0-.21-2c-.24-1-.58-2-.88-2.93a4,4,0,0,0-.18-.41,4.18,4.18,0,0,0,.19,1.3,18.65,18.65,0,0,1,.6,2.33,22.17,22.17,0,0,1-.48,5.54c-.09.73-.3,1.44-.45,2.16s-.71,1.51-.69,2.37l-.53.37c.23.44,0,.88-.39,1.29-.15.16-.38.28-.46.47-.22.51-.06,1.11-.64,1.58-.37.3-.33,1-.75,1.51a17.23,17.23,0,0,0-1.55,2.6l-.94,1.41a1.53,1.53,0,0,0-.75.93,1.92,1.92,0,0,1-1.2,1.23c-.12,0-.17.26-.26.4l-1.27,2.58.92.13,0,0,0,0-.92-.13h0l-.83,1.47-.8.63.8-.63.83-1.47-.41-.06.14.11L128.91,30l-.22.8-.24.6.24-.6a2.85,2.85,0,0,0-1.28,1.66c-.32.37-.58.88-1,1.07-.63.29-.53.8-.66,1.27L125,36l-.36.8.35,0,.09-.27-.09.27-.35,0L125,36c-.54.08-.76.46-.88.95a2,2,0,0,1-.28.49l-.25.45c-.4.13-.73.25-.74.81a3.44,3.44,0,0,1-.43,1.11h0l-.33.53-.67-.2-.74,1.72h0l-.23.36,0,.07,0-.07-.62.17-.41,1.24c-.2.06-.47.07-.57.2a8.56,8.56,0,0,0-.63,1.06h.48l.8-.92-.8.93h-.48c-.21.39-.4.81-.94.82h0c-.07.21-.14.43-.23.64s-.23.51-.34.76h0l-.46-.3L115.71,48a5.24,5.24,0,0,1-.52.68,3.42,3.42,0,0,1-.62.39l-.12.6-.41.46h0l-.17.24a1.43,1.43,0,0,1-1,1.39l-.26-.17-.46,1-.69,1.25-.54-.3-.41.65c-.35.55-.48,1.26-1.15,1.58v.59h0v-.59c-.27-.31-.37-.1-.46.15s-.24.6-.35.9A2.51,2.51,0,0,1,107.32,58a1,1,0,0,0-.85.84,2.17,2.17,0,0,1-.62,1c-.35.3-.74.72-1.29.42a4.85,4.85,0,0,1-.18.61,4.76,4.76,0,0,1-1.5,1.66L101.34,64l.14,0-.14,0h-.2q-.17-.83-1-.22L100,64h0L98.39,66c-.17-.55-.37-.53-.56-.21s-.29.63-.44.94-.45.87-1,1l.22-.78c-1.17.35-1.07,1.77-2.16,2.25l.15-1.76c-.94.76-2.08,1.11-2.08,2.49,0,.37-.21.64-.64.33l.09-1c-.42.26-.89.4-1.12.71a19.14,19.14,0,0,0-1.15,2l-.34.12.24-1.21-.16-.11a8,8,0,0,0-2.3,2.6l-1.16.93.66-1.49-.09-.13a2.34,2.34,0,0,0-.59.29c-.55.51-1.07,1-1.61,1.57-.21.2-.54.34-.63.58a1.5,1.5,0,0,1-1.52.92c-1.06,0-2.13.28-3-.55.64-.76.82-1.61.31-2.08a2.06,2.06,0,0,0-1.23-.48,4.24,4.24,0,0,0-1.29.37,2.35,2.35,0,0,1,2-1.59,4.4,4.4,0,0,0,3.14-2,1.43,1.43,0,0,0,.13-.51l-.14-.07a3.77,3.77,0,0,1-2.6.67c.52-.52,1.27-.77,1.51-1.63-.66.24-1.2.41-1.73.63a18.66,18.66,0,0,1-4.11.94,4.36,4.36,0,0,0-2.86,2.68,24.13,24.13,0,0,1-1.19,2.86c0,.08-.17.12-.35.24l.5-1.4-.19-.1c-.49.32-1,.62-1.47,1s-1,.63-.95,1.4c0,.41-.33.8-.95.9.09-.24.14-.41.21-.57s.24-.44.35-.67c0-.07,0-.22,0-.24a.37.37,0,0,0-.3,0,5.16,5.16,0,0,0-1.95,1.43,2,2,0,0,1-.55.49A8.09,8.09,0,0,0,63.82,79a3.53,3.53,0,0,1-1.56,1.25c-.23.08-.43.32-.66.34a8.38,8.38,0,0,1-1.27-.06l.09-1.18a1.38,1.38,0,0,0-.59.11c-.62.42-1.2.9-1.8,1.35a1.33,1.33,0,0,1-.32.13l-.06-.09.69-.88a4.39,4.39,0,0,0-2.82,1.58l.28-1.06-.13-.09a6.68,6.68,0,0,0-1.41,1.13,5.22,5.22,0,0,1-2.48,1.72c-1.2.47-2.46.78-3.68,1.22a2,2,0,0,0-.83.68,1.74,1.74,0,0,1-1.59.85,4,4,0,0,0-1,.2l.23.17-.23-.17-1.05.25h0a6.29,6.29,0,0,0-1.16-.08c-.37,0-.73.29-1.1.31-1,.07-1.92.07-2.88.09l-.36.1h0c-.25.08-.59.09-.73.26-.43.54-1,.44-1.55.44l-.51,0h0l-1.06.12.26.57.68.33h0l-.68-.33-.26-.57c-.76.07-1.53.09-2.28.22s-1.61.46-2.44.56a6.8,6.8,0,0,0-2.87.74v.11h0V89.2c-.58,0-1.16,0-1.72.13a11.25,11.25,0,0,0-1.43.4,3,3,0,0,1-.84.26,3.35,3.35,0,0,0-2.38.87,4,4,0,0,1-1.24.54c-.48.18-1,.27-1.45.49a8.66,8.66,0,0,0-1,.7c-.83.55-1.87.85-2.34,1.83a2.16,2.16,0,0,1-1.63,1.06l-.37.11-.56.13-1.18.13-.24.12.24-.12,1.18-.13a13.87,13.87,0,0,0-2.16-.09,3,3,0,0,0-2.14,1,3.67,3.67,0,0,1-1.34.86,4.08,4.08,0,0,0-2.25,2.35.57.57,0,0,1-.18.22,5.51,5.51,0,0,0-2,3.44,2.65,2.65,0,0,1-.19.81c-.34.73-.76,1.42-1.08,2.15a3.78,3.78,0,0,0-.14,2.91.72.72,0,0,1,0,.43,4,4,0,0,0,.63,3.58,2.39,2.39,0,0,0,2.27,1.16c.4,0,.69,0,.55.59a.83.83,0,0,0,.16.72,3.32,3.32,0,0,1,1.08,2.06,3.31,3.31,0,0,0,3.61,2.19c.51-.05,1-.51,1.48-.79l.13-.1.57-.39L11,118c.09-.16.18-.31.25-.48s.17-.63.37-.82c.57-.55.59-1.31.89-2l.14-1.26c.06-.09.18-.19.19-.28,0-1.3,1-2.39.86-3.72.13-.47.24-.94.39-1.41.45-1.47.92-2.94,1.37-4.41l.57-1h0l.92.14.1-.13,0-1.65-.25-.81a3,3,0,0,1-.29-.24,3,3,0,0,0,.29.24h0l.25.81,0,1.65-.1.13-.35,1a1.77,1.77,0,0,0,1.19,2.22c.6.12,1.21.17,1.83.26,0-.16.11-.28.08-.34-.5-.9-.25-1.89-.38-2.83a8.49,8.49,0,0,0-.22-.88l1.25-.71.34,1c0,.2.16.48.08.59-.66.81,0,1.45.3,2.07a2.71,2.71,0,0,0,2.44.68c.11,0,.24-.29.2-.37a5.47,5.47,0,0,1-.2-3c.16-.4.23-.89.81-.92l1.27.85a3,3,0,0,1-.06.62,2,2,0,0,0,.56,2c.07.08.18.16.2.25a1.29,1.29,0,0,0,1.1,1c.73.15,1.48.25,2.22.34.12,0,.27-.11.4-.17a3.13,3.13,0,0,0-.16-.33c-.08-.13-.22-.23-.27-.37-.24-.7-.48-1.4-.66-2.12a1.53,1.53,0,0,1,0-1c.23-.37.52.12.8.13a5.64,5.64,0,0,0,.94-.09,6.67,6.67,0,0,1-.34-.61c-.11-.26-.44-.54,0-.8s.72-.38,1.1,0-.05.49-.21.69a2.56,2.56,0,0,0-.17.24.44.44,0,0,0,.35.67c.22,0,.44.09.77.16a1.39,1.39,0,0,0-.25,2.19c.44.42.95.77,1.43,1.16l.59.1,1.61.18a15.47,15.47,0,0,0-.11-1.64,2.38,2.38,0,0,0-.92-1.84.89.89,0,0,1-.24-1.17l2.54.46.08-.2-.78-1c.71-.47.88-.42,1.11.22a1.85,1.85,0,0,0,.23.53,1.3,1.3,0,0,1,.08,1.36,8.63,8.63,0,0,0-.3.88,1,1,0,0,0,.56,1.31,6.25,6.25,0,0,0,2.92.62,6.81,6.81,0,0,0,1.53-.41l0-.19a1.86,1.86,0,0,1-.6-.14c-.24-.15-.6-.38-.61-.59a10.84,10.84,0,0,1,.14-2c.06-.43.39-.52.8-.45a8.51,8.51,0,0,0,1.31.13c.14,0,.28-.2.42-.31a2.12,2.12,0,0,0-.29-.31c-.18-.13-.38-.24-.65-.4l.61-.49a1.25,1.25,0,0,0,.09.3c.13.17.27.34.41.51a3,3,0,0,0,.4-.35.74.74,0,0,1,1-.26,3.09,3.09,0,0,0,1,.44c.55,0,.68.3.7.73.06,1.41.15,2.83.14,4.24,0,1,.31,2.07-.22,3.07-.06.12.2.42.32.63a8.35,8.35,0,0,1,.74,3.13c.35.18.67.33,1,.52.6.37,1.18.77,1.77,1.16l1.62,1.12c1.84,1.28,3.67,2.59,5.54,3.82.35.23.77.86,1.37.3h.73a1.55,1.55,0,0,0,.4-.67,1.55,1.55,0,0,1-.4.67h-.73a16.91,16.91,0,0,0,5.26,1.63,6.45,6.45,0,0,0,3.91-.47c.5-.46-.1-.49-.27-.69a5.68,5.68,0,0,0-1-.6c-.92-.32-1.86-.61-2.81-.84a19.86,19.86,0,0,0-2.23-.38c-.58-.08-1.17-.09-1.76-.13-.95-.69-1.9-1.38-2.84-2.08-1.38-1-2.74-2.07-4.12-3.1-.55-.41-1.13-.78-1.69-1.17l-.24.23-.14-.06.14.06.24-.23c-.91-.49-.85-1.48-1.16-2.33.42-.27.35-.63.11-1a2.43,2.43,0,0,1-.38-.89c-.22-1.9-.4-3.8-.59-5.7l.15-1.06,1,1.29a1.82,1.82,0,0,0,1.55-.45l.38.21c.4.41,1,.6,1.18,1.24.34,1,.83,2,1.24,2.95s.79,2,1.19,3a3.7,3.7,0,0,0,.32.84c.26.36.62.65.91,1s.66.8,1,1.21L60,114.2a14.28,14.28,0,0,0,1.5,1.35,5.51,5.51,0,0,0,1.89.93c.6.13,1.2.07,1.52.73l.09,0,.27-.15a10.28,10.28,0,0,0,1,.62c.26.13.55.1.85.25a13.68,13.68,0,0,0,2.22.71l1.21.35.14-.07-.14.07a19,19,0,0,0,2.42.61,13.18,13.18,0,0,0,2.19-.07,2.18,2.18,0,0,0,2.22.85l.37.5.11-.19a2.49,2.49,0,0,1,.57,0c.67.16,1.33.65,2,.06a.26.26,0,0,1,.17,0,5.72,5.72,0,0,0,2.23-.13c.67-.23,1.33-.46,2-.7.07,0,.09-.17.14-.26l-.84-.1c-.09-.1-.16-.25-.27-.28a35.13,35.13,0,0,0-3.43-1c-1-.2-2.07-.17-3.1-.27a14,14,0,0,1-1.75-.3c-.69-.16-1.38-.38-2.06-.57-.53-.22-1.06-.47-1.6-.67-1.25-.47-2.51-.92-3.77-1.38l-5.5-2.1h0L60.24,110c-1-1.87-2-3.73-3-5.6a1.37,1.37,0,0,1-.06-.46l-.6.25h0l.6-.25,0-.42a.79.79,0,0,1,1.08,0,.26.26,0,0,0,.11,0,15.38,15.38,0,0,1,4.11,1.34c2.28,1,4.58,2,6.84,3a3.63,3.63,0,0,1,2.18,1.71c.1.24.48,1.1,1.08.3,0,0,.11,0,.16,0,.51.16,1,.3,1.53.49,1.38.53,2.72,1.18,4.13,1.61,4.46,1.36,9,2.64,13.43,4a2.6,2.6,0,0,1,.87.44,7.35,7.35,0,0,1,1.65,1.41c.22.31.73.42,1.08.65a6.25,6.25,0,0,0,1,.74c1.11.45,2.24.82,3.42,1.23V120a.31.31,0,0,0,0-.1c.33-.34.23-.59-.13-.83a3.42,3.42,0,0,1-.57-.57,11.18,11.18,0,0,0-1.77-1.93,8.61,8.61,0,0,0-3.51-1.71c-.09,0-.15-.16-.23-.23a4.15,4.15,0,0,0-1-.79c-1.84-.71-3.7-1.32-5.54-2-1.41-.54-2.79-1.16-4.2-1.72-.87-.35-1.77-.63-2.65-1-.59-.22-1.16-.49-1.76-.69-1-.34-2-.61-3-1-.62-.23-1.18-.63-1.8-.87s-1.53-.51-2.3-.76l-2.49-1.13-1.06-.12h0l-1.29-.55-2.1-.68,2.1.68,1.29.55,1.06.12-1.51-.82a3.58,3.58,0,0,0,.51.09l6.62.24,1.29-.25h0l-1.29.25,2.07.13c1.22.07,2.44.13,3.65.22.92.07,1.83.18,2.75.29.51.06,1,.14,1.53.22s.79.15,1.18.22h0c.3.11.61.21.9.33,1.46.59,3.07.59,4.52,1.26a6.42,6.42,0,0,0,1.85.25,2.37,2.37,0,0,1,.41.09,14.26,14.26,0,0,0,1.75.54c2.74.48,5.49.91,8.24,1.36l3.28.59h0c.3.23.47.11.56-.21.32.3.84.29,1.07.8s.35,1,1,1c0,0,.09.07.12.12a2.91,2.91,0,0,0,1.45,1.09,13.53,13.53,0,0,0,2.34,1.2,8.61,8.61,0,0,1,1.95.88,1.82,1.82,0,0,0,1,.15c.36,0,.56-.27.36-.61a11,11,0,0,0-1.07-1.62c-.49-.58-1.07-1.08-1.61-1.61h0c-.25-.72-.93-.89-1.51-1.19l-1.32-.88-1.16.27-.35.05.35-.05,1.16-.27c-.05-.1-.08-.25-.16-.28-.5-.2-1-.37-1.52-.54s-.81-.25-1.22-.37l-1.53-.45-.95.12h0l-2.83-.45-1-.14,1,.14,2.83.45.95-.12-1.37-.37-1.33-.3c-.49-.1-1-.23-1.47-.31-1.11-.19-2.23-.38-3.35-.54s-2.2-.27-3.31-.42c-.62-.08-1.24-.2-1.87-.28a6.26,6.26,0,0,1-.94,0c-3.05-.9-6.1-1.82-9.15-2.74a.37.37,0,0,1,0-.08s0,0,0,0l1.63,0,2.25.11c1.15.06,2.3.1,3.44.18.28,0,.54.23.82.27,1.2.15,2.41.27,3.61.39l4.15.37c2.16.19,4.31.44,6.48.53a5.8,5.8,0,0,1,4.18,1.65,10.54,10.54,0,0,0,2.15,1.52,3.31,3.31,0,0,0,1.41.74,2.74,2.74,0,0,1,.87.43c-.3-1.05-.69-2-1-2.88a7.51,7.51,0,0,0-2-2.73,1.5,1.5,0,0,0-1.55-.34,2.24,2.24,0,0,0-.6-.46,5,5,0,0,0-1-.12l-1.4-.12h0c-1.77-.19-3.54-.4-5.32-.57-1.57-.15-3.15-.27-4.52-.38l-.94-2.18-.08.8.31,1.26-.31-1.26.08-.8-1.13-2-.61-.89a4.06,4.06,0,0,0-2.71-1.4A22.6,22.6,0,0,0,89.22,94c-.86-.06-1.72-.17-2.58-.22-.62,0-1.24,0-1.87,0-.12,0-.23-.14-.35-.22l-1.06,0-1.29-.08c.54-.63,1.17-.48,1.7-.65l2.77,0,1.31,0L93,92.71h1.5l3.41,0h3.83c.91.06,1.82.16,2.73.17,1.48,0,3,0,4.46,0a1.2,1.2,0,0,1,.71.21c.69.55,1.31,1.18,2,1.71a16.52,16.52,0,0,0,1.68,1l.15-.19-1.14-2.13.13-.09c.37.41.72.84,1.11,1.23.61.6,1.23,1.19,1.88,1.75.21.18.48.17.56-.2,0-.17.07-.34.11-.5h0l-.18-.35a6.93,6.93,0,0,0-2.09-3.57,3.78,3.78,0,0,0-2.4-.76,2.46,2.46,0,0,0-.27-.65c-.4-.47-.83-.9-1.25-1.35l-1.67-1,.59-.45a3,3,0,0,0,.7.19,8.89,8.89,0,0,0,1.09-.1,26.67,26.67,0,0,0,3.68-.43c.71-.18,1.16.4,1.78.25,0,0,.12.09.12.11-.12.5.14.72.52,1,.62.5,1.06,1.21,1.67,1.72a15.89,15.89,0,0,0,2.07,1.34,2,2,0,0,0,.69.08l-.38-1.41-.33.35-.5-1.38.5,1.38.33-.35-.38-.82c0-.06,0-.13,0-.17-.83-1-1.1-2.48-2.39-3.16a1.34,1.34,0,0,1-.61-.57c-.34-.81-1.07-.74-1.73-.86-.91,0-1.82-.09-2.73-.09-1.23,0-2.45.05-3.67.09a7.55,7.55,0,0,0-1,0c-.95.16-1.89.35-2.83.53l-1.89.3a1.72,1.72,0,0,0-.28-.08c-1.13-.12-2.26-.25-3.4-.34a6.92,6.92,0,0,0-2.06,0c-1.91.45-3.8,1-5.69,1.54L90.5,87l.81-.7.46-.36a3.7,3.7,0,0,0,.75-.95A3,3,0,0,1,94,83.13a5.87,5.87,0,0,1,1-.49,9.39,9.39,0,0,0,3.19-1.79l-.92-.32-.46.36-.45.25.45-.25h0l.46-.36a.28.28,0,0,0,0-.11l.26-.35a1.28,1.28,0,0,0,.49.08c1.18-.32,2.36-.67,3.54-1,.08,0,.14-.1.3-.23l-.57-.24-.37.13-.37-.12.37.12.37-.13c.11-.08.22-.21.34-.23.36-.05.72-.07,1.08-.09l-.62-.45h0l.62.45a2.14,2.14,0,0,0,1.39-1h-1.29v-.15l.95-.39-1.19.09-.12-.29.12.29,1.19-.09.68-.25a1.73,1.73,0,0,0,1.21-.67l-1-.18c1.32-.52,2.69-.54,3.58-1.56l-1-.41-.6-.12h-.11l.29-.57-.29.57h.11l.6.12a1.47,1.47,0,0,1,1.31-1,4.59,4.59,0,0,0,2.62-.8,2.28,2.28,0,0,0,1-1.17l-1.44.32-.09-.22.8-.57.11-.34h0l-.11.34c.18,0,.49,0,.51-.12a1,1,0,0,1,1-.78l1-.84a5.48,5.48,0,0,0,1.62-.91,4.94,4.94,0,0,1,1.19-.56c.28-.54,1-.57,1.61-.82a1,1,0,0,1,1.34-.91c0-.56.48-.59.87-.66a.84.84,0,0,0,.64-.35,2.36,2.36,0,0,1,1.92-1.16,3.38,3.38,0,0,1,.59-.48,7.07,7.07,0,0,0,1.38-.57,8.22,8.22,0,0,0,1.14-1.29,3.9,3.9,0,0,0,1.66-1.31c.1-.17.39-.22.6-.33a2.32,2.32,0,0,0,.29-.17l.91-.68c.1-.07.25-.1.34-.18s.43-.47.65-.71c.38-.22,1-.37,1.09-.67.14-.51.43-.61.81-.75s.59-.24.89-.36.77.11.82-.44l.36-.58,1.69-.82c.06-.24,0-.54.17-.63a11,11,0,0,0,1.83-1.37,12,12,0,0,1,1.82-1.31,1.54,1.54,0,0,1,.44-.56c.22-.17.47-.31.71-.46h0a37.83,37.83,0,0,1,6.21,2.53,11.92,11.92,0,0,0,2,.73l.09-.26-1.57-.65-4.48-1.83-2.2-.87,1.23-.68-.13-.21a1.33,1.33,0,0,1,.2-.21c.45-.3,1-.55,1-1.19a.44.44,0,0,1,.34-.26c.49.08.59-.29.76-.59.82-.32,1.19-1.3,2.13-1.45,0,0,.06-.17.1-.26a1.46,1.46,0,0,1,1.47-.6c.65.19,1.31.35,1.94.58,1.21.45,2.41.94,3.62,1.41a2.64,2.64,0,0,0,.38.09l.09-.23c-.7-.32-1.38-.7-2.1-1-1.33-.47-2.69-.86-4-1.29a21.6,21.6,0,0,0,2.12-2A7.49,7.49,0,0,1,152,40.13a8.67,8.67,0,0,0,2.38-2c.64-.68,1.22-1.42,1.82-2.13l.14-.18a5.45,5.45,0,0,1,.86-1.11,10,10,0,0,0,2.06-2.76c.25-.29.53-.56.75-.88.89-1.27,1.72-2.58,2.65-3.8a5.1,5.1,0,0,0,.49-1.21,27.67,27.67,0,0,0,1.48-2.54c.29-.87.67-1.71,1-2.56h0a.71.71,0,0,1-.06-.27c.15-.69.3-1.38.46-2.07.32-1.55.67-3.09.95-4.65.24-1.37.39-2.75.58-4.12.08-.55.19-1.1.24-1.66a8.82,8.82,0,0,1,1.22-4.42A1.52,1.52,0,0,0,168.13,5Zm-37.69,24.9h0v.35l.06.76-.06-.76h0v-.35l-.22-.07Zm-.82.85.23.43.19.1-.19-.1-.23-.43-.35.07Zm-.69,1.38a.5.5,0,0,0,.27-.17.5.5,0,0,1-.27.17l-.08.15Zm-1.64.69.34-.12-.34.12Zm-.82,2.44-.23-.7.23.7Zm0-1.29.33-.57-.33.57c-.2.06-.3.16-.31.3C126.18,34.18,126.27,34.08,126.48,34Zm-.21,2.24h0l-.51.11ZM125.1,37l.23-.09-.23.09-.29.53Zm-1.41,1.73h0Zm-.83.71.35-.18-.35.18Zm-.79,1.06.3.1-.3-.1,0-.12Zm-.38,3.14v0h0Zm-.47-.9,0,.06,0-.06Zm-.94,1.74,0,.37,0-.37-.74-.07Zm-.7,1.16v0h0Zm0,.48a.54.54,0,0,1-.32.43A.54.54,0,0,0,119.6,46.09Zm-1.06.09.7-.58-.7.58-.06,0Zm-1.13-.26,0,0,.41.19-.41-.19Zm-.74,1.2v.24h0ZM106.61,69.33l-.12.07.12-.07Zm1.87-2.23.18-.06-.18.06-.24.1Zm2-.1h0a.89.89,0,0,0,0-.3A.89.89,0,0,1,110.45,67Zm19.17-19.13c1.21-1.33,2.42-2.66,3.68-4A15.11,15.11,0,0,1,138,40.64a.83.83,0,0,1,.22-.07.57.57,0,0,1,.17,0c-1.09,1.06-2.26,2-3.23,3.18a14.25,14.25,0,0,0-2.61,3.52,2.13,2.13,0,0,1-1.14,1.06,10.83,10.83,0,0,0-3.64,2l-.14-.12C128.27,49.43,128.92,48.63,129.62,47.86Zm.21,1.51-3.56,3.16-.1-.12A9.34,9.34,0,0,1,129.82,49.37Zm-5,4.75c1-.83,2-1.79,3-2.64s1.83-1.4,2.75-2.09l.16.2c-2,2.87-5,4.56-7.82,6.6A5.59,5.59,0,0,1,124.81,54.13ZM112,68.49c0-.19-.1-.3-.21-.34.11,0,.17.14.21.34a.41.41,0,0,0,.25-.08A.41.41,0,0,1,112,68.49Zm.46-.69-.24-.35.24.35.35.11Zm1.84-2.24.05,0-.05,0,.13.24Zm6.21-4.77c-.18.22-.33.55-.69.23a2.33,2.33,0,0,0-.47.15,4.07,4.07,0,0,0-.48.36l-.1-.11,1.87-1.91Zm-1.89.36c-.31.34-.62.68-.94,1-.06.07-.19.16-.25.13-1-.4-1.37.61-2.07.85-.27.09-.52.22-.78.33s-.49.43-.7.67-.35.12-.47-.08l-.23.14,0,.22,0-.22-1.53.77-.82.4.12.56.58.48-.58-.48-.12-.56c0-.13,0-.31.07-.39,1.08-1,2.12-2,3.28-2.9s2.27-1.48,3.41-2.2,2.52-1.57,3.84-2.29l-.19.3a1.2,1.2,0,0,1,.09.18,1.2,1.2,0,0,0-.09-.18l-.37.28-.11.38-.1.38ZM120.8,64l.18-.38h0Zm13.82-10.46a2.44,2.44,0,0,1-.22-.38,2.44,2.44,0,0,0,.22.38Zm0,0h0ZM136.41,51h0l.12-.3Zm.12-.31h0l.41-.37Zm.21-1c-.11,0-.23.16-.31.27s-.33.52-.52.77-.24.26-.31.24c-.78-.28-.84.49-1.2.8s-.43.6-.9.43c-.08,0-.25.08-.33.17-.26.28-.49.58-.73.87l-.28.19-.25-.44a3,3,0,0,1-.33.62c-.25.28-.55.52-.83.77-.35-.44-.48,0-.63.19a5.76,5.76,0,0,0-.48.71,1.31,1.31,0,0,1-.33.23c-.23-.38-.32,0-.46.09a4.17,4.17,0,0,1-1.09.67.81.81,0,0,0-.61.41c-.15.25-.22.69-.68.32,0,0-.21.06-.29.13-.26.25-.51.53-.77.79-.22,0-.5,0-.66.14a12.08,12.08,0,0,0-1,1l-.56.37L123,60h0l.22-.58c-.12-.33-.36-.38-.6-.16a9.44,9.44,0,0,0-.73.86l.39-.23-.82,1.07.6.82a.52.52,0,0,0,.48.05.52.52,0,0,1-.48-.05l-.33.27.33-.27-.6-.82h0l.82-1.07-.39.23-1.09.81,0-.34a23.21,23.21,0,0,1,1.18-2.92,4.46,4.46,0,0,1,1.44-1.31,35.55,35.55,0,0,0,5.91-4.68c.84-.88,1.59-1.83,2.35-2.78a1.5,1.5,0,0,1,1-.51,16.34,16.34,0,0,1,5,.2,1.46,1.46,0,0,1,.33.11C137.81,49.34,137.45,49.62,136.74,49.64Zm1.89-.42h0l1.06.33Zm.93-1.06.46.6h0Zm.94,1.53-.77.52.77-.52.69-.24Zm.24-1.23.1.17.25.13h0l-.25-.13Zm1.4-2.28h0l.59-.16Zm1.5-1.5-.56.18,0,1.07.08,0-.08,0,0-1.07-.22.33c-.16.23-.31.62-.49.64-.35,0-.46.22-.61.45-.25.38-.55.55-.86.16l-.63,1.05,0,.14h0l0-.14-.68.17-.49.73c-.84-.1-1.68-.22-2.53-.31-.62-.06-1.24-.11-1.86-.12s-1.23,0-1.84.08l-.08-.15a35.54,35.54,0,0,1,3.34-1.77c1.81-.74,3.67-1.36,5.53-1.95a14.07,14.07,0,0,1,2.35-.33Zm1.78-1.3-.35,1.18.35-1.18h0l.14.61Zm2,0h0Zm0-.82v0l1.52-.71Zm3.85-3.39.36-.13h0Zm.22-.5h0a3.26,3.26,0,0,1,.76-.78A3.26,3.26,0,0,0,151.46,38.69Zm1.48-1.16c.1-.1.19-.23.28-.33h0C153.13,37.3,153,37.43,152.94,37.53Zm.42.24-.13.11.13-.11Zm.59-.91c0,.16,0,.33.05.49,0-.16,0-.33-.05-.49l-.59.34h0l.59-.34c.35-.07.7-.13.84-.43C154.65,36.72,154.29,36.78,153.95,36.85Zm4.92-6,0,0,0,0,.56-.18Zm1.86-2c0-.07,0-.15,0-.22s0,.15,0,.22Zm.51-.28c.18-.12.27-.29.08-.64h0l.17-.13-.17.13C161.5,28.32,161.41,28.48,161.23,28.6Zm3.66-6.43c.07-.33.09-.67.15-1h0C165,21.5,165,21.84,164.89,22.17Z"/><path class="cls-1" d="M114.44,49.7l.12-.6,0-.32c-.34.5-.82.93-.67,1.61l.17-.24Z"/></symbol></defs><title>Corals_all_layers_08282017</title><g id="background"><rect class="cls-4" width="792" height="246"/><path class="cls-5" d="M792.67,613V191.74c-23.18-3.76-33.45-9-62-13.62-45.35-7.34-81.1-4.09-114.06-1.1-59.41,5.39-56.89,14.35-107.61,16.74-34.65,1.64-63.28-1.24-104.17-5.35-54.81-5.51-50.87-8.85-80.28-10-47-1.77-53,6.91-121.76,11.1a794.91,794.91,0,0,1-94,.39c-41.58-2.42-69.07-7.63-84.28-9.86-14.73-2.15-19.6-4.85-23.81-6.15V613Z"/><g id="Bottom"><path class="cls-6" d="M100.89,382.33l5.44-4.45,16.92-1.21,10.27,2,10.88,6.88s4.83,6.07,5.44,7.28,0,13.76.6,16.59,0,10.12,0,10.12l-12.69,6.07-10.27,2.83-23,1.21-14.5-2-9.67-4.45L73.7,412.28l1.21-14.57,4.83-10.52,6-1.21Z"/><path class="cls-7" d="M792,612v-5.36c-11.1-3.55-23.22-7.2-35-10.31C721.67,587,706.33,553,683,523s-14-24.67-39.33-62S603,367.67,579,345s-17.67-31.67-43-41-69-3-69-3c-30.47,3.39-60-3-69.71,3.85-16.29,7.48-35,26-35,26l-44,53S269.51,404.79,260.06,411c-13,8.46-59.24,6.21-59.24,6.21s-38.37-1.13-47.39,0-53-7.9-65.45-7.9c-11.33,0-51.82,2.82-88,6.75V612Z"/></g></g><g id="other-biota"><use id="Sponge_4-3" data-name="Sponge 4" width="98.73" height="87.68" transform="matrix(-0.34, -0.07, -0.07, 0.34, 600.21, 331.13)" xlink:href="#Sponge_4"/><circle class="cls-8" cx="704.42" cy="261.83" r="23.44"/><path class="cls-1" d="M713.3,261.32l.05,0c.52.17,1,.32,1.54.52s1.23.5,1.83.76q1.77.78,3.49,1.68.94.49,1.86,1,1.19.68,2.35,1.41a5.08,5.08,0,0,1,1,.68c.27.28-.46,0-.53,0-1.36-.43-2.67-1-4-1.51a31.77,31.77,0,0,1-5.73-2.89c-.65-.4-1.3-.79-1.94-1.2-.08,0-1-.67-.9-.78S713.06,261.23,713.3,261.32Z"/><path class="cls-1" d="M702.6,256.4l.05,0c.54.17,1.09.34,1.62.55s1.28.52,1.92.8q1.86.81,3.65,1.76,1,.51,1.95,1.07,1.25.71,2.46,1.47a5.42,5.42,0,0,1,1,.71c.29.29-.48.05-.56,0-1.42-.45-2.79-1.07-4.2-1.58a33.31,33.31,0,0,1-6-3c-.68-.41-1.36-.82-2-1.25-.08-.05-1.08-.7-.94-.81S702.35,256.31,702.6,256.4Z"/><path class="cls-9" d="M700.25,251.51A5.25,5.25,0,0,1,698,256.4a5,5,0,0,1-5.35.52c-1.69-.85-2.61-2.93-3.13-4.37s.79-3.66,2.22-4.89,4-1,5.35-.52S700,249.82,700.25,251.51Z"/><rect x="687.94" y="266.56" width="2.41" height="1.46" transform="translate(-35.73 411.92) rotate(-32.48)"/><rect x="689.41" y="267.68" width="2.42" height="1.46" transform="translate(-36.3 411.9) rotate(-32.4)"/><rect x="687.11" y="264.81" width="2.41" height="1.46" transform="translate(-35.15 410.05) rotate(-32.39)"/><rect x="685.76" y="263.42" width="2.41" height="1.46" transform="translate(-34.54 409.49) rotate(-32.42)"/><rect x="691.11" y="273.15" width="2.41" height="1.46" transform="translate(-38.85 414.27) rotate(-32.45)"/><rect x="691.58" y="275.02" width="2.42" height="1.46" transform="translate(-39.79 414.75) rotate(-32.45)"/><rect x="690.64" y="271.28" width="2.42" height="1.46" transform="translate(-38 413.33) rotate(-32.42)"/><rect x="690.16" y="269.41" width="2.41" height="1.46" transform="translate(-37.08 412.71) rotate(-32.42)"/><polygon class="cls-9" points="687.76 262.41 685.72 263.71 684.94 262.48 686.98 261.18 687.76 262.41"/><rect x="684.67" y="259.84" width="2.42" height="1.46" transform="translate(-32.76 408.5) rotate(-32.43)"/><rect x="684.36" y="257.86" width="2.41" height="1.46" transform="translate(-31.78 407.89) rotate(-32.42)"/><circle cx="711.61" cy="246.59" r="1.15" transform="translate(310.66 884.1) rotate(-76.95)"/><circle cx="713.36" cy="247.56" r="1.15" transform="translate(311.48 886.82) rotate(-76.98)"/><circle cx="714.33" cy="249.48" r="1.15" transform="translate(310.03 889.05) rotate(-76.95)"/><circle cx="714.97" cy="251.61" r="1.15" transform="translate(308.8 891.54) rotate(-76.98)"/><circle cx="709.46" cy="246.09" r="1.15" transform="translate(309.51 881.65) rotate(-76.95)"/><circle cx="707.19" cy="246.13" r="1.15" transform="translate(307.8 879.52) rotate(-76.96)"/><circle cx="705.74" cy="247.49" r="1.15" transform="translate(305.1 879) rotate(-76.93)"/><circle cx="705.58" cy="249.43" r="1.15" transform="translate(303.25 880.45) rotate(-76.95)"/><circle cx="716.13" cy="253.06" r="1.15" transform="translate(307.94 893.57) rotate(-76.95)"/><circle cx="716.43" cy="255.05" r="1.15" transform="translate(306.49 895.58) rotate(-76.98)"/><circle cx="716.32" cy="257.34" r="1.15" transform="translate(303.97 897.12) rotate(-76.96)"/><circle cx="714.64" cy="258.14" r="1.15" transform="translate(301.84 896.06) rotate(-76.95)"/><path class="cls-9" d="M704.42,274.6c.27.76.38,1.29,0,1.65s-.9.24-1.42-.16a14.24,14.24,0,0,1-1.61-3,1.09,1.09,0,0,1,.53-1.44h0a1.09,1.09,0,0,1,1.49.36S704.12,273.75,704.42,274.6Z"/><path class="cls-9" d="M709,276.15a1.14,1.14,0,0,1-1.62,0h0c-.43-.46.62-1.81,1.08-2.24l2-2.28a1.14,1.14,0,0,1,1.62,0h0c.43.46,0,1.28-.46,1.72Z"/><path class="cls-9" d="M708,272.41c0,.46-.22,1.08-.85,1.08h0c-.63,0-1.14-.37-1.14-.83l.21-3c0-.46.3-.66.93-.66,0,0,.91.2.91.66Z"/><path class="cls-10" d="M708.13,276c.14.92,2.17,1.65,4,.69s-1.27-2,.53-3.83,3.86.19,3.17,1"/><path class="cls-10" d="M707.26,271.38c.42.65-3.3-3.13-1.69-4.09,3.88-2.3,7.6,2.07,9.39.26,3-3,4.28,1.78,3.89,2.59"/><path class="cls-10" d="M700.4,279.17c.42.83-5.5,2.15-1.29-1.85,1.6-1.52,1.65,3,2.8.78s2.49-3.53,2.1-2.51"/><path class="cls-9" d="M706.82,276.9c-.09.38-.4.85-.92.73h0c-.52-.12-.87-.53-.78-.91l.76-2.43c.09-.38.38-.49.9-.37,0,0,.72.35.63.73Z"/><path class="cls-8" d="M666.34,278.31a6.86,6.86,0,1,1-6.86-6.86A6.86,6.86,0,0,1,666.34,278.31Z"/><line class="cls-8" x1="687.94" y1="243.28" x2="655.37" y2="272.75"/><line class="cls-8" x1="704.48" y1="287.27" x2="659.48" y2="285.17"/><path class="cls-1" d="M686,244.52a25.62,25.62,0,0,0,31.53,39.74l2.62,2.49.95-1,2.13,2,1.08-1.14L752.05,318s3.49,4.3,6.28,1.36l5.52-5.81c2.79-2.94-1.68-6.21-1.68-6.21l-32.72-26.13,1.63-1.72-2.13-2,.95-1L727.27,274A25.62,25.62,0,0,0,686,244.52Zm34.46,32.73a21.91,21.91,0,1,1-.79-31A21.91,21.91,0,0,1,720.42,277.25Z"/></g><g id="parrotfish"><path d="M36.41,356.31c.32-.07,1.72-.19,1.68-.72,0-.06,0-.12,0-.18,0-.21.14-.39.27-.57a3.31,3.31,0,0,0,.47-1.15,1.1,1.1,0,0,0,0-.61c0-.14-.15-.28-.12-.42a.55.55,0,0,1,.08-.17,2.1,2.1,0,0,0,.31-1.37c-.1-.64-.63-.61-.87-1.09,0-.09-.07-.2-.11-.29-.15-.32-1.93-1.12-1.56-1.61.21-.28.91.13,1.16.17a10.66,10.66,0,0,1,1.29.29,14.12,14.12,0,0,1,2.45,1c.71.37,1.39.77,2.08,1.18s1.36.67,1.95,1.07,2-.61,2.58-.82a16.67,16.67,0,0,1,3-.92,21.31,21.31,0,0,1,3-.29,27.44,27.44,0,0,1,6.27.25,27.59,27.59,0,0,1,9.52,4.28,24.12,24.12,0,0,1,3.65,2.7c.56.52,2.87,2.68,1.75,3.52-.33.25-.92-.11-1.39,0-.08,0-.16.07-.16.15s.08.13.15.16,1.31.23,1,.64A4.06,4.06,0,0,1,71.94,363c-1.58.24-3.17.47-4.77.56a17.3,17.3,0,0,1-2.44,0,5.19,5.19,0,0,0-2,.2,3.29,3.29,0,0,1-3.25-.65c-.32-.19-.22-.65-.59-.71-1-.18-2.09-.29-3.13-.51a4.88,4.88,0,0,0-1-.2c-.33,0-.65.17-1,.18a4.7,4.7,0,0,1-1.59-.26,12.58,12.58,0,0,1-2.15-1c-.95-.53-1.9-1.07-2.8-1.68a14.44,14.44,0,0,1-1.32-1c-.3-.26-.53-.7-.91-.86s-1.16.17-1.63.3a13.86,13.86,0,0,1-3.82.54,15.71,15.71,0,0,1-2.53-.33c-.38-.07-.77-.06-1.14-.16s-1-.51-.35-.75A7.63,7.63,0,0,1,36.41,356.31Z"/></g><g id="seagrass"><use width="6.08" height="36" transform="translate(11.58 386.91)" xlink:href="#Thalassia_testudinum_Turtlegrass_3"/><use width="6.08" height="36" transform="translate(18.5 386.16)" xlink:href="#Thalassia_testudinum_Turtlegrass_3"/><use width="6.08" height="36" transform="translate(26.33 385.91)" xlink:href="#Thalassia_testudinum_Turtlegrass_3"/><use width="6.08" height="36" transform="translate(37.16 385.58)" xlink:href="#Thalassia_testudinum_Turtlegrass_3"/><use width="6.08" height="36" transform="translate(42.5 379.66)" xlink:href="#Thalassia_testudinum_Turtlegrass_3"/><use width="6.08" height="36" transform="translate(47.83 384.83)" xlink:href="#Thalassia_testudinum_Turtlegrass_3"/><use width="6.08" height="36" transform="translate(52.66 389.58)" xlink:href="#Thalassia_testudinum_Turtlegrass_3"/><use width="6.08" height="36" transform="translate(42.58 393.16)" xlink:href="#Thalassia_testudinum_Turtlegrass_3"/><use width="6.08" height="36" transform="translate(32.16 391.5)" xlink:href="#Thalassia_testudinum_Turtlegrass_3"/><use width="6.08" height="36" transform="translate(22.66 395.08)" xlink:href="#Thalassia_testudinum_Turtlegrass_3"/><use width="6.08" height="36" transform="translate(15.16 393.83)" xlink:href="#Thalassia_testudinum_Turtlegrass_3"/></g><g id="soft-coral"><use width="99.94" height="100" transform="matrix(-0.27, 0, 0, 0.27, 354.65, 414.59)" xlink:href="#Soft_coral"/><use width="99.94" height="100" transform="matrix(-0.27, 0, 0, 0.27, 344.66, 350.4)" xlink:href="#Soft_coral"/><use width="99.94" height="100" transform="matrix(-0.27, 0, 0, 0.27, 352.95, 387.15)" xlink:href="#Soft_coral"/><use width="99.94" height="100" transform="matrix(-0.27, 0, 0, 0.27, 383.66, 397.4)" xlink:href="#Soft_coral"/><use width="99.94" height="100" transform="matrix(-0.27, 0, 0, 0.27, 406.78, 384.46)" xlink:href="#Soft_coral"/><use width="99.94" height="100" transform="matrix(-0.27, 0, 0, 0.27, 384.65, 326.59)" xlink:href="#Soft_coral"/><use width="99.94" height="100" transform="matrix(-0.27, 0, 0, 0.27, 377.5, 360.27)" xlink:href="#Soft_coral"/></g><g id="stony-coral"><use width="99.75" height="78.98" transform="translate(131.52 358.7) rotate(46.5) scale(0.33)" xlink:href="#Brain_coral_Faviidae_3"/><use width="99.75" height="78.98" transform="translate(386.13 296.61) rotate(-5.79) scale(0.33)" xlink:href="#Brain_coral_Faviidae_3"/><use width="99.51" height="82.08" transform="translate(487.44 352.7) scale(0.42)" xlink:href="#Acropora_spp."/><use width="99.51" height="82.08" transform="translate(559.24 394.92) scale(0.39)" xlink:href="#Acropora_spp."/><use width="99.51" height="82.08" transform="matrix(-0.39, 0, 0, 0.39, 603.69, 362.78)" xlink:href="#Acropora_spp."/><use width="99.51" height="82.08" transform="matrix(-0.39, 0, 0, 0.39, 557.1, 381.98)" xlink:href="#Acropora_spp."/><use width="99.51" height="82.08" transform="translate(529.07 340.81) scale(0.39)" xlink:href="#Acropora_spp."/><use width="99.51" height="82.08" transform="matrix(-0.39, 0, 0, 0.39, 134.27, 388.46)" xlink:href="#Acropora_spp."/><use width="37" height="48.48" transform="translate(521.97 299.64)" xlink:href="#New_Symbol_4"/><use width="37" height="48.48" transform="translate(479.47 303.39)" xlink:href="#New_Symbol_4"/><use width="37" height="48.48" transform="translate(450.72 333.27)" xlink:href="#New_Symbol_4"/><use width="99.75" height="78.98" transform="matrix(-0.21, 0.26, 0.26, 0.21, 87.03, 360.27)" xlink:href="#Brain_coral_Faviidae_3"/></g><g id="other-reef-fish"><path d="M377,294.56s0-.09,0-.14a31.18,31.18,0,0,0-4.09-3.43c-1.43-1.19-2.66-2.6-4.17-3.68a12.74,12.74,0,0,0-4.63-2,.2.2,0,0,1-.12-.06.21.21,0,0,1,0-.18,3.57,3.57,0,0,0,0-1.59,2.45,2.45,0,0,1-.56.61,13.07,13.07,0,0,0-.8-3,1.52,1.52,0,0,1-.87,1,.18.18,0,0,1-.14,0,.2.2,0,0,1-.09-.09l-1.17-2a2.57,2.57,0,0,1-1,1.62,6.59,6.59,0,0,0-1.06-1,1.69,1.69,0,0,1-.56,1.2.38.38,0,0,1-.18.1c-.29.05-.44-.45-.73-.41a1.4,1.4,0,0,1-.67,1.22,1.39,1.39,0,0,0-.83-.46,1.15,1.15,0,0,1-.11.88.32.32,0,0,1-.15.15c-.23.09-.41-.3-.65-.29a1.56,1.56,0,0,1-.23,1,.18.18,0,0,1-.09.08.19.19,0,0,1-.14,0l-.43-.21a1.71,1.71,0,0,1-.15.75.21.21,0,0,1-.1.12.23.23,0,0,1-.17,0l-.57-.27c.05.3.07.67-.19.82s-.51,0-.74-.17a.6.6,0,0,1-.71.56.21.21,0,0,0-.14,0c-.05,0-.07.09-.09.14-.14.38-.51.33-.81.22s-.15.05-.27.08a1.33,1.33,0,0,1-.39,0,5.66,5.66,0,0,0-1,0,6.44,6.44,0,0,0-1.91.54,8.4,8.4,0,0,0-2.67,2,4,4,0,0,0-1,1.59.78.78,0,0,0,0,.57.61.61,0,0,0,.44.29c.39.07.79,0,1.19.07,0,.13-.19.17-.32.19a7.2,7.2,0,0,1-3.6-.4,18.7,18.7,0,0,1-2.66-1.43,33.74,33.74,0,0,0-3.05-1.58,7.65,7.65,0,0,0-3.17-.87.57.57,0,0,0-.3.06c-.18.11-.1.31,0,.46a21.36,21.36,0,0,0,1.36,2.42,16.74,16.74,0,0,0,2.51,3,1.58,1.58,0,0,1,.31.35c.16.27,0,.47-.14.68a17.44,17.44,0,0,0-1.86,2.4,6.77,6.77,0,0,0-1,2.83,1,1,0,0,0,.08.61c.26.45,1.15.07,1.51-.06a9.89,9.89,0,0,0,1.78-.93c.93-.58,1.8-1.24,2.71-1.85a7.94,7.94,0,0,1,2.05-1.07,7.45,7.45,0,0,1,2.52-.24,8.7,8.7,0,0,1,1.53.18c.39.09,1.07.22,1.31.58h0a11,11,0,0,0-1.46.06,1.18,1.18,0,0,0-.64.18c-.42.21,0,1.15,0,1.49q.2,1,.47,2a2.6,2.6,0,0,0,.41,1,2.1,2.1,0,0,0,1.09.54.75.75,0,0,0,.28.06c.09,0,.19,0,.28,0s.35.19.53.17a.53.53,0,0,0,.2-.07c.93-.47,2.72-1.62,2.74-1.63s1-.53,1.37-.76a.32.32,0,0,1,.18,0c1,.12,2.06.3,3.1.37s2.29,0,3.42,0v0a2.11,2.11,0,0,0-1.13.6,2.7,2.7,0,0,0-.5,1.12,3,3,0,0,0,.37,2.43,1,1,0,0,0,.71.43A1.3,1.3,0,0,0,358,304a18.6,18.6,0,0,1,1.83-1.29,5.74,5.74,0,0,0,1.38-1.63q.26-.38.5-.77c.09-.14.25-.62.41-.68a13.7,13.7,0,0,1,2.29-.41l2.48-.39c1.65-.27,3.3-.57,4.92-1a30.38,30.38,0,0,0,3.06-.93,4,4,0,0,0,1.89-1.18c.11-.15.19-.37.06-.49a.41.41,0,0,0-.3-.07,2.72,2.72,0,0,1-1,0,.21.21,0,0,1,.08-.06c.23-.07.45-.16.68-.22S376.89,294.85,377,294.56Z"/></g><g id="grouper-snapper-complex"><path d="M619.83,303l-.15-.07a1.35,1.35,0,0,1-.2-.08l-.56-.35c-.18-.21-.45-.23-.68-.36a1.37,1.37,0,0,0-.69-.22c-.11,0-.26,0-.32-.15l-.63-.09-.89-.22,0-.16-.51-.07-.31-.09-.25,0,0-.2-.75,0-.28-.07-.79,0-.47-.19-.5-.06-.61-.1s0-.06-.07-.09,0-.11-.06-.11H610l-.23-.06.1-.18-.11,0h-.1L609,300a1.65,1.65,0,0,1-.29,0,2.81,2.81,0,0,1-.33-.12l0,0,.14-.14-.12,0a1.74,1.74,0,0,0-.46,0,.43.43,0,0,1-.6-.28h-.47a.29.29,0,0,0-.34.09l-.35.28-.15,0a.45.45,0,0,0-.05-.12l-.2-.2-.13-.17-.06-.36-.72.55c-.23-.11-.5-.16-.65-.39a4.26,4.26,0,0,1-.22-.43s0,0,0-.07l.07-.14-.05,0-.28.23-.41.29a1.11,1.11,0,0,1-.65-.32,1,1,0,0,1-.13-.83l0,0-.24.17-.06.06a2.58,2.58,0,0,1-.37.32l-.2-.06-.13-.07a2,2,0,0,1-.22-.23.42.42,0,0,1-.11-.14.89.89,0,0,1,0-.7h0l-.1.1-.19.18-.26.24-.11.14s0,.1-.08.13h-.05a.17.17,0,0,1-.09,0,.88.88,0,0,1-.11-.12l-.12-.14a2.13,2.13,0,0,1-.21-.29,1.48,1.48,0,0,1-.17-.53.15.15,0,0,1,0-.1s0,0,0-.08-.32.37-.46.4h-.08a1.25,1.25,0,0,1-.35-.15.91.91,0,0,1-.35-1,.12.12,0,0,0,0,0,0,0,0,0,0,0,0h0a3.37,3.37,0,0,0-.69.68,1.25,1.25,0,0,1-.65-.52,2,2,0,0,1-.2-.47,1.32,1.32,0,0,1-.06-.63l0,0c-.06,0-.67,1-.81,1.06a.21.21,0,0,1-.11,0,1.24,1.24,0,0,1-.7-.54,3.29,3.29,0,0,1-.24-.55c-.05-.14-.07-.29-.11-.43a.13.13,0,0,0-.08.05c-.08.16-.14.31-.22.47l-.46.85c0,.07-.07.15-.1.22a.38.38,0,0,1-.15.19c-.06,0-.32-.1-.37-.13a1.15,1.15,0,0,1-.26-.22,1.29,1.29,0,0,1-.29-.54s-.09-.39-.09-.39a.92.92,0,0,0-.16.17,6.47,6.47,0,0,0-.45,1.08l-.18.56c0,.12-.08.37-.18.46a.58.58,0,0,1-.57,0,1,1,0,0,1-.37-.45.85.85,0,0,1-.08-.29,1.54,1.54,0,0,1,0-.33,2.05,2.05,0,0,0-.34.79c-.07.28-.13.57-.17.85L590,298.7s-.32-.16-.34-.18a1.09,1.09,0,0,1-.26-.33s-.17-.23-.17-.1a6.5,6.5,0,0,0,0,1c0,.29,0,.59,0,.88,0,.06,0,.27,0,.31s-7.05,2.38-10.2,4.51a42.17,42.17,0,0,0-5.82,4.82q-.81.8-1.59,1.63l-.77.84c-.12.13-.32.31-.28.51a.47.47,0,0,0,.18.25c.09.07.18.13.28.2s.07.06.11.07h.06l.08,0,.08.05.13,0,.13,0,.31.11c.08,0,.18.08.17.17l-.29,0h-.13l-.14,0c-.12,0-.24,0-.37,0h-.33a1.09,1.09,0,0,0-.29.05.27.27,0,0,0-.19.19c-.08.44.34.9.7,1.08a10.48,10.48,0,0,0,1.72.57c1.2.35,2.41.65,3.63.91s2.47.5,3.71.74c2.55.48,5.11.94,7.65,1.45l.76.14a.48.48,0,0,1,.19.06.49.49,0,0,1,.16.25,23.69,23.69,0,0,0,2.45,4.66,1.91,1.91,0,0,0,.45.52c.19.14,1.36,1.19,1.85,1.68a4.33,4.33,0,0,0,1.74,1.13c.09,0,.38.19.29,0a5.32,5.32,0,0,1-.34-1.55c0-.54,0-1.09-.05-1.63,0-.2-.06-.39-.07-.59s0-.55,0-.82a5.67,5.67,0,0,0-.25-1.68,1.69,1.69,0,0,0-.8-.92,2.64,2.64,0,0,0-.5-.22c-.3-.1-.61-.15-.91-.26-.1,0-.22-.11-.19-.2s.11-.1.18-.11a8.81,8.81,0,0,1,1.67,0,43.1,43.1,0,0,0,5,0q1.26-.08,2.51-.24l1.29-.18c.28,0,.64-.22.92-.15a4.75,4.75,0,0,1,1.09.75l2.3,1.61a.65.65,0,0,0,.43.16,2,2,0,0,0,.3-.1c.42-.12.75.4,1.16.13a10.07,10.07,0,0,0,3.54.59c.8,0,1.6-.12,2.39-.2.43,0,.86-.09,1.29-.1a4.59,4.59,0,0,0,1.18,0,.9.9,0,0,0-.32-.41c-.71-.64-1.53-1.17-2.21-1.84A9.93,9.93,0,0,1,614,317.2c-.3-.46-.46-1.58-1.08-1.62a2.68,2.68,0,0,0-.56.07,3.24,3.24,0,0,1-1.4-.08,5.62,5.62,0,0,1,2.32-.88,12.74,12.74,0,0,1,2.65-.4,10,10,0,0,1,5.12,1.1,21.3,21.3,0,0,1,2.09,1.36,56.21,56.21,0,0,0,7.05,4.17c.59.29,1.19.58,1.8.82.26.1,1,.54,1.25.35s-.55-1.15-.67-1.31a12.09,12.09,0,0,1-1.32-2.28,26,26,0,0,1-1.28-2.8,13.39,13.39,0,0,1-.87-3.22,9.54,9.54,0,0,1,.44-3.22c.28-1.27.6-2.54.9-3.81a5.44,5.44,0,0,1,.74-2,3.36,3.36,0,0,0,.6-1s.34-.52.45-.69.59-.67.54-.93c0,0,.26-.27.25-.42a2.51,2.51,0,0,0-1.16.19c-3,.91-5.49,2.71-8,4.41-1,.65-1.91,1.4-2.94,2a6.9,6.9,0,0,1-3.08,1.11,4.4,4.4,0,0,1-2.55-.57c.55-.29,1.23-.27,1.79-.59a2.69,2.69,0,0,0,.68-.63A29.92,29.92,0,0,0,619.83,303Z"/></g><g id="jacks"><path d="M154.12,361.25c.21-.58.7-.62,1.2-.63.15,0,.3,0,.45,0a.33.33,0,0,0,.11,0s0-.09-.07-.11c-.2-.11-.4-.23-.6-.33a2.39,2.39,0,0,0-.44-.15.68.68,0,0,1-.42-.3.22.22,0,0,1,0-.13,16.18,16.18,0,0,1,1.28-3.45,20.59,20.59,0,0,1,2-3.81,21,21,0,0,1,9.19-7.24A46.17,46.17,0,0,1,179,342c.41-.06.82-.08,1.23-.11l.6,0a.73.73,0,0,0,.62-.37c.21-.32.45-.63.69-.93s.67-.81,1-1.2a7.9,7.9,0,0,1,1.5-1.41,1,1,0,0,1-.07.2.22.22,0,0,0,0,.32c.11.09.2,0,.27-.08a13.22,13.22,0,0,1,1.68-1.51,4.69,4.69,0,0,1,.52-.3l0,0-.14.24a.93.93,0,0,0,0,.79c.08.1.16.14.27,0a.36.36,0,0,1,.21-.08l0,.15a1.19,1.19,0,0,0,.11,1c.11.2.2.22.56.21a.36.36,0,0,1,0,.07.56.56,0,0,0,0,.55c.09.15.14.32.24.47a.64.64,0,0,0,.76.21.47.47,0,0,1,.17,0,.84.84,0,0,0,.27.67.66.66,0,0,0,.79.21.81.81,0,0,1,.25,0c.08.38.38.46.66.54a2.07,2.07,0,0,0,1.31-.15c.13-.05.21,0,.28.1a.55.55,0,0,0,.61.32c.33,0,.66-.06,1-.11a1.23,1.23,0,0,0,.39-.15,6.69,6.69,0,0,0,1.33-1.06c.3-.28.62-.53.95-.78s.67-.49,1-.73.89-.66,1.34-1,.88-.59,1.33-.87.83-.5,1.24-.75l.3-.15c.42-.21.83-.42,1.26-.62s.66-.28,1-.4a6,6,0,0,1,.87-.25c.31-.06.63-.07.95-.11l.27-.06c.11,0,.22,0,.3.08a.18.18,0,0,1,0,.25,2.32,2.32,0,0,1-.8.58,2.65,2.65,0,0,0-.43.28,6.15,6.15,0,0,0-1.19,1c-.23.27-.38.58-.59.86a7.39,7.39,0,0,0-.62,1.16,1.12,1.12,0,0,0-.09.36,2.65,2.65,0,0,0,0,1c.1.37.15.9.55,1.09.08,0,.18.07.2.16a.56.56,0,0,1,0,.16c0,.31.52.32.65.61l-.21.13.7.37.28.15q.62.32,1.26.58l-.15.15,1.25.45a.71.71,0,0,1,.29.16,1.63,1.63,0,0,0,.13.15.49.49,0,0,0,.18.08l1.14.34c-.15,0-.19.24-.07.34a1,1,0,0,0,.45.1c.5.08.81.62,1.3.75.21.05.48.07.54.27a.58.58,0,0,0,0,.15.26.26,0,0,0,.17.09,1.73,1.73,0,0,1,1.07.52.29.29,0,0,0-.25.05q.68.26,1.37.48L214,348a3,3,0,0,0,1,.53.39.39,0,0,1,.25.13c0,.06,0,.15.07.21a.4.4,0,0,0,.23.15,10.75,10.75,0,0,1,1.29.52c0,.06-.07.15-.05.18a.46.46,0,0,0,.19.1l1.19.52,0,0c.21.33.6.34.89.53a2.08,2.08,0,0,1,.43.24,6,6,0,0,0,1.52.87c.38.22.78.41,1.16.62l.55.3s.07.08.1.12l0,.05-1-.29,0,0s.06.1.11.11a3.25,3.25,0,0,0,1,.31,2.28,2.28,0,0,1,.42.14,7.67,7.67,0,0,0,2.24.2,5.42,5.42,0,0,0,1-.18,5,5,0,0,0,.93-.27,13.26,13.26,0,0,0,1.27-.69c.37-.22.72-.47,1.08-.71.09-.06.17-.15.26-.22.63-.48,1.27-1,1.9-1.45.35-.28.68-.6,1-.88s.72-.52,1.07-.79.81-.66,1.23-1,1.06-.74,1.59-1.1c.3-.21.6-.42.91-.61a9,9,0,0,1,.87-.49c.53-.25,1.06-.51,1.6-.71a18.55,18.55,0,0,1,2-.65,11,11,0,0,1,1.77-.25,17.43,17.43,0,0,1,1.85,0,5.11,5.11,0,0,1,1.8.4l.09.06a.6.6,0,0,1-.46.31c-.84.2-1.68.36-2.51.59a13.56,13.56,0,0,0-1.76.65,7.74,7.74,0,0,0-1.29.71,4.83,4.83,0,0,0-1.13,1c-.09.12-.26.12-.29.3a.39.39,0,0,1,0,.12.24.24,0,0,1-.09.08,6.73,6.73,0,0,0-1.35,1.22l-.26.28c-.48.52-1,1-1.4,1.6a2.3,2.3,0,0,1-.23.26l-.17.14a3.15,3.15,0,0,0-.38.43l-.5.63a6.41,6.41,0,0,0-1.09,1.72c-.71,1.95.09,3.38,1.17,4.95a43.19,43.19,0,0,0,4.07,5.28,17.24,17.24,0,0,0,2.5,2.19c.84.6,2.16,1,2.86,1.64a.31.31,0,0,1-.31.13l-1.29-.08h-.61c-2.78,0-5.46-2.13-7.55-3.78-2.67-2.11-4.82-4.83-7.5-6.89a7.39,7.39,0,0,0-1.59-1,3.71,3.71,0,0,0-1.63-.32,8.86,8.86,0,0,0-2.16.35c-.41.12-.81.27-1.21.41,0,0,0,0-.06.07a.69.69,0,0,0,.16,0l.84-.12a.14.14,0,0,1,.11.06.11.11,0,0,1,0,.1.44.44,0,0,1-.14.08c-.6.23-1.21.45-1.8.7-.27.12-.52.3-.78.44l-1.09.58a5.69,5.69,0,0,0-.93.55,4.4,4.4,0,0,1-1.37.61,1.51,1.51,0,0,0-.53.28,3.7,3.7,0,0,1-.73.37l-.95.52a.6.6,0,0,0-.19.14s-.05.09-.09.13a.46.46,0,0,1-.16.1l-2,.88.22.25a11.25,11.25,0,0,0-2.23,1.16l.25.22a4.12,4.12,0,0,0-1.2.76c-.08.07-.14.22,0,.26a2.81,2.81,0,0,0-1.4.85c.12,0,.22.14.17.26a.65.65,0,0,1-.28.25,3.39,3.39,0,0,0-1,1.25,7.51,7.51,0,0,0-.58,1.2,4.55,4.55,0,0,0,.73,4c.31.47.6,1,.92,1.42a11,11,0,0,0,.69.87,3.15,3.15,0,0,1,.64,1c0,.09.09.21-.1.2h0c-.29.24-.57.06-.82,0a8.92,8.92,0,0,1-1.92-1.18c-.45-.34-.89-.69-1.31-1.07s-.86-.84-1.28-1.27-.78-.83-1.16-1.26a13.1,13.1,0,0,1-.88-1.08c-.94-1.34-1.68-3-3.14-3.84a5,5,0,0,0-.82-.35,4.33,4.33,0,0,0-1.45-.32c-.26,0-.81.32-1,.23s-.29-.23-.47-.27-.39.19-.25.31c-.31,0-.54-.24-.8-.42a2.74,2.74,0,0,0-1.7-.31,67.76,67.76,0,0,0-8.3.57.34.34,0,0,0-.15.08c.1.21.33.3.39.56a2.57,2.57,0,0,1-.09.77,3.74,3.74,0,0,1,0,.52c0,.1-.07.19-.1.29a2.18,2.18,0,0,0-.08.47q-.13,1.26-.23,2.53a5.31,5.31,0,0,1-.25,2.12L181.38,372a15.94,15.94,0,0,1-2.92-3.51,6.21,6.21,0,0,0-.81-1.31c-.63-.68-1.58-.5-2.42-.52-1.22,0-2.44-.05-3.67-.1a65.88,65.88,0,0,1-7.1-.6,35.57,35.57,0,0,1-5.91-1.36c-1.73-.57-4-1-4.43-3Z"/></g><g id="sharks"><path d="M683.33,350.26a1.22,1.22,0,0,1-.09-.62,1.65,1.65,0,0,1,.6-.9c3-2.75,7.57-3.33,11.42-4.18,3.51-.77,7-1.6,10.61-2.11s15.7-2.53,16.11-2.77a8.83,8.83,0,0,0,1.39-2.52c.2-.51,1.5-4.42,1.8-5.48a17.31,17.31,0,0,1,2.32-4.21,5,5,0,0,1,1.84-1.49c.28-.1,1.68,4.68,2.67,6.73a10.48,10.48,0,0,0,3.13,3.79,13,13,0,0,0,3.77,2l-3.31.72s-.32.41.15.55a84.74,84.74,0,0,0,10.53-.69c2.66-.44,9.63-2,9.63-2s.11-1.12.2-1.54a27.22,27.22,0,0,1,.74-3.29.56.56,0,0,1,.56-.34s1.12,2.41,2.08,2.35,2.18-.63,2.41-.48-.37.5-1.18,1.12-.59.89-.32.94,1.92-1.1,2.88-1.45a16.45,16.45,0,0,0,2.69-1.51,39.79,39.79,0,0,1,1.19-4.2,43.39,43.39,0,0,1,2.58-5.9c.56-.91,4.79-9.33,5.78-10.26s1.63-1.43,1.76-1.24-.27.8-.44,1.56.61,4.19.31,4.22a5.93,5.93,0,0,1-1.47-.59s0,2-.06,3-.36,3.54-.66,4.88a71.14,71.14,0,0,0-.72,9.15c.16.63,2.15,1.67,3,2.67a6.85,6.85,0,0,0,3.11,1.9c.41,0,.84.5.5.65a11.65,11.65,0,0,1-2.47.73c-1.17.21-3.43-.64-4.06-.93s-4.14-2-5.15-1.89-1.27.55-2.06,1.42-2,2.23-2,2.24,1.76-.62,1.82-.38a.21.21,0,0,1,0,0,.24.24,0,0,1,0,0,.26.26,0,0,1,0,0,5.76,5.76,0,0,0-.42,1.22,1.49,1.49,0,0,0,0,.31,1.25,1.25,0,0,0,.07.32c.29.79,2.37,1.57,2.4,1.87a.06.06,0,0,1,0,.05,3.56,3.56,0,0,1-2.14.43c-1.14,0-3.49-.59-4-.49s-2.55,2.16-4.73,4.51a8.79,8.79,0,0,1,1.17-.1c.27,0,.12.6.37,1.43s.64,1.47.7,1.81-.24.58-1,.54a16.72,16.72,0,0,0-2.23.34l-.67.06c-.06.51-.14,1.21-.2,1.88-.11,1.26.53,2.73.31,2.95s-1.12.13-1.79-.1a15.22,15.22,0,0,0-2.89-.76l-.95-.08a30.77,30.77,0,0,1-8.17,5.56A48.71,48.71,0,0,1,737,364c2,1.7,4.74,3.72,5.5,4.24,1.22.82,5,4.42,4.78,4.56a3.06,3.06,0,0,1-1.39.09c-.72,0-8.1-3.52-9.53-4.23-.85-.42-3.63-1.92-5.88-3.18-.52.06-1,.11-1.5.14l-2.11.09c-.59.6-1.54,2-2.63,5a19.11,19.11,0,0,0-.68,7.39c.39,2.93,1.61,8.27,1.74,9.39s.63,3.24.31,3.39-.48.27-1.18-.12a10,10,0,0,1-2.88-2.54c-1.27-1.52-5.62-9.79-7-14.37-1.5-3.6-2.39-5.78-2.89-7.13-.12-.31-.23-.6-.34-.84-8.3-.56-13.12-1.2-16.19-2.81-1.36-.68-3.26-1.7-3.3-2.75a2.58,2.58,0,0,1,.54-1.72l-1.87-1.27a16.66,16.66,0,0,1-2.25-1.93,23,23,0,0,0-1.94-1.94c-.43-.34-.89-.63-1.31-1a6.09,6.09,0,0,1-1.52-1.9A3,3,0,0,1,683.33,350.26Z"/></g><g id="queen-conch"><use width="30.74" height="24.02" transform="translate(291.01 379.86)" xlink:href="#New_Symbol_5"/></g><g id="lionfish"><use width="99.8" height="74.54" transform="translate(639.92 423.11) rotate(-9.91) scale(0.34)" xlink:href="#Pterois_volitans_Red_Lionfish_"/></g><g id="rays"><path d="M303.06,407.32c.3.84,0,1-.75.65a26.37,26.37,0,0,0-13.07-2.83c-1.31.06-2.63-.06-3.94,0a5.3,5.3,0,0,0-3.09,1.42c-1.7,1.4-3.64,2.51-5.45,3.79-1.26.88-2.45,1.85-3.7,2.75a7.4,7.4,0,0,1-1.54.91c-2.15.86-4.3,1.73-6.49,2.48a8,8,0,0,1-2.94.46,6.44,6.44,0,0,0-3.6.61c-1.53.65-3.41.48-5.37.7-1.35.44-1.31-.11-2.32.39a1.1,1.1,0,0,0-.68,1.53,4.25,4.25,0,0,1-.63,4,16.67,16.67,0,0,0-1.64,3.07c-.56,1.23-1.4,1.7-2.61,1.07a2,2,0,0,0-2.77.61c-2.86,3.18-4.15-.53-8.19.83s-6.9,1.4-11,2.43a66.92,66.92,0,0,1-8.46,1.29,15.83,15.83,0,0,1-6.3-.86,21,21,0,0,1-5.7-3.62c-2.76-2.13-4.14-2.85-5.35-4.49a13.51,13.51,0,0,1-1.81-4.79c-.36-1.33-.14-1.74,1.21-1.76a8.91,8.91,0,0,0,6.58-2.38c2.14-2.13,4.9-2.5,7.79-2.27a15.4,15.4,0,0,0,1.8,0c3-.12,5.84.82,8.73,1.54s5.68,1,8.53,1.47c1.67.27,3.38.34,5,.73a22.75,22.75,0,0,0,8.06.19c4-.47,8.54-1.08,12.63-1.61a24.19,24.19,0,0,0,6.13-1.71c2.41-1,4.59-2.58,7-3.51,1.9-.73,3.57-1.79,5.36-2.64a76.81,76.81,0,0,1,9.9-3.68,14.51,14.51,0,0,1,4.35-.32,32.05,32.05,0,0,1,10.8,2c1,.36,1.94.76,2.92,1.14Z"/></g><g id="forage-fish"><use width="18.02" height="2.74" transform="translate(28.95 257.94) scale(1.46)" xlink:href="#New_Symbol_3"/><use width="18.02" height="2.74" transform="translate(47.54 252.06) scale(1.46)" xlink:href="#New_Symbol_3"/><use width="18.02" height="2.74" transform="translate(52.58 264.48) scale(1.46)" xlink:href="#New_Symbol_3"/><use width="18.02" height="2.74" transform="translate(19.33 247.86) scale(1.46)" xlink:href="#New_Symbol_3"/><use width="18.02" height="2.74" transform="translate(74.36 250.16) scale(1.46)" xlink:href="#New_Symbol_3"/><use width="18.02" height="2.74" transform="translate(71.91 261.41) scale(1.46)" xlink:href="#New_Symbol_3"/><use width="18.02" height="2.74" transform="translate(89.35 267.71) scale(1.46)" xlink:href="#New_Symbol_3"/><use width="18.02" height="2.74" transform="translate(99.22 257.29) scale(1.46)" xlink:href="#New_Symbol_3"/><use width="18.02" height="2.74" transform="translate(103.13 248) scale(1.46)" xlink:href="#New_Symbol_3"/></g><g id="damselfish"><path d="M438.48,320.12a3.49,3.49,0,0,1-.64-.53.64.64,0,0,1-.18-.29c-.06-.29.24-.51.5-.65a8.09,8.09,0,0,1,2-.69.72.72,0,0,0,.42-.19.47.47,0,0,0,0-.52,1.53,1.53,0,0,0-.38-.4,9.18,9.18,0,0,1-1-1,1.3,1.3,0,0,1-.28-.43,1,1,0,0,1,.15-.81,1.93,1.93,0,0,1,1.87-.71,5.68,5.68,0,0,1,1.94.78c1.1.61,2.19,1.21,3.33,1.73a9.71,9.71,0,0,0,1.76.64c.21.05,1.77.32,1.8,0-.17-.1-.34-.2-.52-.29a5.77,5.77,0,0,1-1.92-2.06,1.13,1.13,0,0,1-.22-.45,1.1,1.1,0,0,1,.05-.44,3.63,3.63,0,0,1,.3-.83,4,4,0,0,1,.63-.79,1,1,0,0,1,.78-.43,11.9,11.9,0,0,1,2.55-.22,22.25,22.25,0,0,0,2.41.39,7.92,7.92,0,0,1,1.41.17c1.61.22,3.22.51,4.81.89a24.62,24.62,0,0,1,3.61,1.11A18.63,18.63,0,0,1,466.9,316c2.36,1.56,5.06,3.16,6.29,5.83a10.6,10.6,0,0,1,.6,1.74c.07.26.47,1.19.3,1.45l-.3.47a9.11,9.11,0,0,1-2.45,1l-2.64.92a19.14,19.14,0,0,1-4.9,1.09,23.46,23.46,0,0,1-5.74-.75c-.26,0-.52-.09-.77-.14a11,11,0,0,0-2.15-.36,1.92,1.92,0,0,0-1.21.44.38.38,0,0,1-.42,0,2.3,2.3,0,0,1,1.55-1l.12,0v0l-.2-.06c-1.72-.3-3.47-.45-5.2-.76a10.78,10.78,0,0,1-3.1-.92,9,9,0,0,1-2.49-2.07,1.59,1.59,0,0,1-.33-.49c-.21-.58.39-.85.84-1a2.88,2.88,0,0,0,.43-.19l-2.71-.13a12.91,12.91,0,0,1-2.45-.27A4.89,4.89,0,0,1,438.48,320.12Z"/></g><g id="carib-spiny-lobster"><use width="169.06" height="122.02" transform="translate(130.89 393.15) scale(0.27)" xlink:href="#New_Symbol_2"/></g></svg>
